<svg xmlns="http://www.w3.org/2000/svg" width="55.752" height="50.741" viewBox="0 0 55.752 50.741">
  <g id="encrypt" transform="translate(-7.787 -30.241)">
    <path id="Path_3926" data-name="Path 3926" d="M186.865,165.058a8.628,8.628,0,1,0,8.628,8.628A8.628,8.628,0,0,0,186.865,165.058Zm0,15.925a7.3,7.3,0,1,1,7.3-7.3A7.3,7.3,0,0,1,186.865,180.983Z" transform="translate(-151.136 -119.636)" fill="#4b84ff" stroke="#4b84ff" stroke-width="0.5"/>
    <path id="Path_3927" data-name="Path 3927" d="M239.823,224.048a2.017,2.017,0,0,0-.888,3.829v1.38a.666.666,0,1,0,1.331,0v-1.223a2.018,2.018,0,0,0-.444-3.987Zm0,2.706a.687.687,0,1,1,.687-.687A.687.687,0,0,1,239.823,226.754Z" transform="translate(-204.094 -172.08)" fill="#4b84ff" stroke="#4b84ff" stroke-width="0.5"/>
    <path id="Path_3928" data-name="Path 3928" d="M57.1,55.4a3.138,3.138,0,1,0,.841-2.881,3.235,3.235,0,0,0-.841,1.55H48.336a13.18,13.18,0,0,0-.83-4.549H51.24A3,3,0,0,0,54.259,46.5V45.3a1.8,1.8,0,0,1,1.751-1.774h.536a2.842,2.842,0,0,0,.841,1.564,3.107,3.107,0,1,0,2.2-5.293,3.07,3.07,0,0,0-2.2.886,3.113,3.113,0,0,0-.841,1.51H56.01A3.129,3.129,0,0,0,52.928,45.3v1.2A1.667,1.667,0,0,1,51.24,48.19H46.9c-.266-.444-.523-.963-.856-1.427V40.772a10.319,10.319,0,0,0-20.638,0v5.991c-.333.464-.591.983-.856,1.427H20.218A1.667,1.667,0,0,1,18.531,46.5V45.3A3.129,3.129,0,0,0,15.449,42.2h-.536a3.162,3.162,0,1,0-.841,2.9,2.841,2.841,0,0,0,.841-1.565h.536A1.8,1.8,0,0,1,17.2,45.3v1.2a3,3,0,0,0,3.019,3.019h3.734a13.18,13.18,0,0,0-.83,4.549H14.362a3.236,3.236,0,0,0-.841-1.551,3.1,3.1,0,1,0,0,4.406,3.153,3.153,0,0,0,.841-1.524h8.83a13.029,13.029,0,0,0,1.377,4.555c.024.056.191.361.372.66-.011,0,.855,1.293.93,1.331a13.713,13.713,0,0,0,3.09,2.737v3.834a1.744,1.744,0,0,1-1.713,1.751H25.772a3.005,3.005,0,0,0-3.025,3.019v.538a3.174,3.174,0,0,0-1.55.839,3.111,3.111,0,1,0,4.394,0H25.6a3.1,3.1,0,0,0-1.525-.839v-.538A1.672,1.672,0,0,1,25.772,71.6h1.476a3.076,3.076,0,0,0,3.045-3.082V65.426a12.427,12.427,0,0,0,5.215,1.228v7.722a3.221,3.221,0,0,0-1.546.841h0a3.114,3.114,0,1,0,4.411,0,3.17,3.17,0,0,0-1.529-.841V66.609a12.261,12.261,0,0,0,4.438-1.258v3.168A3.111,3.111,0,0,0,44.362,71.6h1.2a1.685,1.685,0,0,1,1.708,1.687v.536a3.177,3.177,0,0,0-1.531.841,3.121,3.121,0,1,0,4.406,0,3.213,3.213,0,0,0-1.542-.841v-.536a3.017,3.017,0,0,0-3.04-3.019h-1.2a1.778,1.778,0,0,1-1.754-1.751V64.587a13.954,13.954,0,0,0,2.979-2.638c.209-.282.892-1.216.93-1.331A12.648,12.648,0,0,0,48.266,55.4Zm1.782-1.954a1.784,1.784,0,1,1-.523,1.261A1.784,1.784,0,0,1,58.879,53.448Zm-.55-11.79a1.784,1.784,0,1,1-.523,1.261A1.784,1.784,0,0,1,58.329,41.658ZM13.13,44.18a1.784,1.784,0,1,1,.523-1.261A1.784,1.784,0,0,1,13.13,44.18Zm-.55,11.79a1.784,1.784,0,1,1,.522-1.261A1.784,1.784,0,0,1,12.579,55.971ZM24.649,78.13a1.783,1.783,0,1,1,0-2.523,1.783,1.783,0,0,1,0,2.523ZM49.73,76.869a1.784,1.784,0,0,1-3.045,1.261h0a1.784,1.784,0,1,1,3.045-1.261Zm-22.988-36.1a8.988,8.988,0,0,1,17.975,0v4.409c-.444-.451-1-.869-1.442-1.248V40.772a7.545,7.545,0,0,0-15.09,0v3.161c-.444.38-1,.8-1.442,1.248Zm15.2,2.294a12.71,12.71,0,0,0-12.427,0V40.772a6.214,6.214,0,0,1,12.427,0ZM37.417,78.681a1.784,1.784,0,0,1-2.523-2.523h0a1.784,1.784,0,1,1,2.523,2.523ZM35.729,65.326A11.275,11.275,0,1,1,47,54.051,11.275,11.275,0,0,1,35.729,65.326Z" fill="#4b84ff" stroke="#4b84ff" stroke-width="0.5"/>
  </g>
</svg>
