<?xml version="1.0" standalone="no"?>
<!DOCTYPE svg PUBLIC "-//W3C//DTD SVG 20010904//EN"
 "http://www.w3.org/TR/2001/REC-SVG-20010904/DTD/svg10.dtd">
<svg version="1.0" xmlns="http://www.w3.org/2000/svg"
 width="612.000000pt" height="612.000000pt" viewBox="0 0 612.000000 612.000000"
 preserveAspectRatio="xMidYMid meet">

<g transform="translate(0.000000,612.000000) scale(0.100000,-0.100000)"
fill="#002578" stroke="none">
<path d="M2905 5066 c-142 -28 -249 -78 -338 -157 -75 -67 -114 -138 -129
-233 l-13 -77 -61 -34 c-86 -49 -208 -141 -278 -211 -149 -149 -264 -395 -313
-664 -28 -156 -21 -456 13 -571 3 -13 -5 -18 -35 -23 -84 -13 -126 -96 -125
-246 2 -177 84 -346 215 -441 l56 -41 7 -92 c25 -354 212 -672 566 -958 85
-69 263 -186 333 -219 168 -78 357 -76 522 5 148 73 420 276 523 391 38 42 55
54 88 60 44 7 158 57 185 81 13 12 22 7 67 -39 50 -51 52 -55 42 -83 -7 -17
-9 -48 -5 -74 6 -42 18 -57 158 -199 166 -167 211 -198 276 -186 80 15 128 65
138 144 8 71 -16 107 -184 272 -161 160 -173 166 -267 155 -50 -7 -52 -6 -95
38 l-43 44 41 83 c72 144 73 278 6 415 -24 50 -35 86 -35 117 0 40 3 47 38 69
164 109 264 342 232 543 -6 38 -19 82 -28 98 -18 31 -78 67 -113 67 -15 0 -19
5 -15 15 35 93 43 457 13 610 -80 404 -264 669 -588 844 l-71 39 -4 51 c-2 28
-14 76 -25 107 -46 121 -210 243 -389 289 -90 22 -277 28 -365 11z m343 -101
c126 -30 249 -108 303 -193 27 -43 46 -99 36 -108 -2 -3 -38 6 -78 20 -151 51
-271 69 -444 69 -197 0 -347 -29 -517 -98 -27 -11 -23 31 8 93 92 186 406 284
692 217z m-79 -305 c237 -21 433 -92 641 -231 165 -110 260 -221 346 -403 106
-226 148 -523 109 -780 -8 -55 -17 -101 -19 -103 -2 -3 -19 24 -37 59 -21 40
-62 92 -114 143 -69 68 -101 91 -220 154 -176 93 -270 158 -340 233 -67 72
-99 133 -116 219 -15 75 -23 89 -54 89 -29 0 -41 -16 -48 -64 -4 -22 -23 -64
-43 -93 -92 -134 -327 -265 -719 -402 -257 -90 -386 -169 -557 -343 l-97 -99
-11 42 c-47 173 -57 411 -26 594 30 173 107 374 189 495 173 254 548 458 896
489 53 4 98 9 101 10 3 0 56 -4 119 -9z m303 -995 c70 -76 200 -164 373 -255
155 -82 230 -151 286 -265 28 -57 42 -101 48 -153 5 -40 15 -79 21 -87 19 -23
47 -18 67 11 45 64 66 84 88 84 35 0 48 -52 43 -169 -9 -178 -72 -284 -228
-384 -24 -15 -36 -32 -38 -50 -2 -16 -6 -27 -10 -25 -193 101 -314 111 -467
40 -169 -80 -263 -242 -253 -440 4 -79 9 -99 42 -166 21 -44 58 -97 85 -124
52 -52 147 -107 207 -120 l39 -9 -50 -48 c-70 -67 -184 -157 -288 -227 -184
-124 -304 -161 -445 -140 -94 15 -181 55 -322 149 -423 283 -652 630 -676
1025 l-7 110 -51 33 c-103 66 -162 142 -197 255 -34 111 -24 278 18 294 21 9
55 -15 73 -50 21 -43 41 -64 61 -64 9 0 41 30 70 68 171 217 346 341 614 433
364 125 590 242 720 375 l60 61 27 -48 c16 -27 56 -78 90 -114z m499 -1320
c88 -31 166 -103 210 -190 21 -43 24 -64 24 -155 0 -96 -2 -110 -28 -158 -38
-72 -100 -132 -173 -168 -53 -26 -69 -29 -154 -29 -83 1 -102 4 -152 29 -73
35 -139 100 -175 174 -25 51 -28 68 -28 157 0 95 2 103 34 163 88 163 273 236
442 177z m581 -942 c77 -76 144 -146 149 -156 17 -31 0 -77 -33 -92 -17 -7
-39 -10 -48 -8 -10 3 -84 72 -165 153 -136 137 -147 151 -141 177 4 15 16 36
28 46 43 36 63 25 210 -120z"/>
<path d="M2385 3056 c-22 -7 -71 -27 -108 -45 -71 -34 -93 -61 -75 -94 13 -26
53 -19 153 27 90 40 110 42 250 20 199 -30 193 -30 206 0 21 46 -7 62 -151 86
-141 23 -217 24 -275 6z"/>
<path d="M3450 3049 c-132 -22 -162 -40 -142 -84 14 -30 18 -31 179 -4 154 25
196 21 301 -26 96 -44 126 -44 130 2 3 28 -2 34 -42 58 -130 76 -224 88 -426
54z"/>
<path d="M2320 2720 c-18 -33 -3 -56 53 -81 45 -21 68 -24 162 -24 120 0 165
15 165 55 0 28 -29 53 -54 45 -12 -4 -52 -9 -91 -12 -56 -4 -81 -1 -125 16
-69 26 -96 27 -110 1z"/>
<path d="M3705 2722 c-33 -18 -165 -23 -221 -9 -59 15 -88 -47 -37 -80 22 -15
48 -18 138 -18 93 1 118 4 162 24 56 25 71 48 53 81 -13 25 -53 26 -95 2z"/>
<path d="M2948 2192 c-26 -5 -34 -49 -13 -72 28 -30 114 -46 179 -31 63 14 91
39 82 74 -8 34 -30 39 -86 21 -43 -14 -55 -14 -97 -2 -26 8 -56 12 -65 10z"/>
<path d="M2743 1719 c-17 -6 -23 -16 -23 -39 0 -29 5 -34 63 -60 76 -34 194
-60 277 -60 83 0 201 26 278 60 60 28 63 31 60 61 -4 46 -33 53 -97 23 -152
-70 -325 -67 -501 9 -23 10 -43 12 -57 6z"/>
<path d="M3874 2156 c-8 -21 13 -46 32 -39 20 8 13 47 -9 51 -9 2 -20 -4 -23
-12z"/>
<path d="M3748 2049 c-35 -20 -19 -79 21 -79 51 0 69 46 29 74 -26 19 -27 19
-50 5z"/>
<path d="M3932 1989 c-29 -11 -46 -53 -32 -79 26 -49 90 -48 110 1 21 51 -25
97 -78 78z"/>
</g>
</svg>
