<svg xmlns="http://www.w3.org/2000/svg" width="44.957" height="50.038" viewBox="0 0 44.957 50.038">
  <g id="Group_2604" data-name="Group 2604" transform="translate(-571 -3711)">
    <path id="Path_3941" data-name="Path 3941" d="M1735.171,299.166a53.513,53.513,0,0,1-15.712-6.173,9.622,9.622,0,0,0-10.3.025,48.782,48.782,0,0,1-14.25,5.782c-2.508.523-3.569,1.462-3.046,4.01.386,2.934.609,5.894,1.188,8.787,2.447,12.2,8.381,22.144,18.946,29.109a3.588,3.588,0,0,0,4.741-.107c13.5-9.782,19.534-23.266,19.951-39.622C1736.719,299.714,1736.171,299.369,1735.171,299.166Zm-.635,3.975c-.893,14.062-6.031,25.966-17.448,34.784-2.071,1.6-3.619,1.589-5.69.025-10.112-7.62-15.306-17.925-16.849-30.266-.259-2.081-1.239-4.533-.223-6.193.939-1.548,3.609-1.35,5.488-2.005a88.051,88.051,0,0,0,11.265-5.087,6.376,6.376,0,0,1,6.264-.107c5.158,2.68,10.382,5.234,16.108,6.493C1734.994,301.13,1734.5,302.212,1734.537,303.141Z" transform="translate(-1120.734 3419.489)" fill="#4b84ff"/>
    <path id="Path_3942" data-name="Path 3942" d="M.591-.8V-7.832H2.855a3.33,3.33,0,0,1,1.675.422A2.969,2.969,0,0,1,5.69-6.217a3.6,3.6,0,0,1,.422,1.726v.323A3.62,3.62,0,0,1,5.7-2.438a2.982,2.982,0,0,1-1.149,1.2A3.257,3.257,0,0,1,2.9-.8Zm1.694-5.72v4.417h.589a1.318,1.318,0,0,0,1.12-.519,2.543,2.543,0,0,0,.391-1.542v-.3a2.522,2.522,0,0,0-.391-1.535,1.341,1.341,0,0,0-1.139-.516ZM11-2.672a.7.7,0,0,0-.263-.579,3.27,3.27,0,0,0-.924-.43,8.868,8.868,0,0,1-1.081-.43A2.047,2.047,0,0,1,7.367-5.954a1.653,1.653,0,0,1,.34-1.031,2.2,2.2,0,0,1,.963-.7,3.747,3.747,0,0,1,1.4-.249,3.278,3.278,0,0,1,1.359.27,2.151,2.151,0,0,1,.934.77A2.01,2.01,0,0,1,12.7-5.747H11.007a.85.85,0,0,0-.263-.666,1.025,1.025,0,0,0-.712-.237,1.156,1.156,0,0,0-.717.2.614.614,0,0,0-.263.509.619.619,0,0,0,.29.49A3.652,3.652,0,0,0,10.36-5a6.239,6.239,0,0,1,1.2.5A2.012,2.012,0,0,1,12.7-2.682,1.716,1.716,0,0,1,12-1.234a3.092,3.092,0,0,1-1.907.526,3.783,3.783,0,0,1-1.547-.307A2.332,2.332,0,0,1,7.5-1.854a2.188,2.188,0,0,1-.35-1.228h1.7a1.078,1.078,0,0,0,.292.833,1.38,1.38,0,0,0,.948.268,1.09,1.09,0,0,0,.664-.181A.6.6,0,0,0,11-2.672Zm8.644-.512a2.567,2.567,0,0,1-.4,1.3,2.389,2.389,0,0,1-1.016.871,3.458,3.458,0,0,1-1.494.309,2.76,2.76,0,0,1-2.182-.9,3.727,3.727,0,0,1-.8-2.549v-.348a4.254,4.254,0,0,1,.36-1.808,2.725,2.725,0,0,1,1.035-1.2,2.889,2.889,0,0,1,1.564-.422,3.029,3.029,0,0,1,2.056.673A2.66,2.66,0,0,1,19.661-5.4H17.971a1.259,1.259,0,0,0-.323-.922,1.33,1.33,0,0,0-.927-.28,1.012,1.012,0,0,0-.927.473,3.04,3.04,0,0,0-.309,1.511v.5a3.364,3.364,0,0,0,.282,1.607,1.033,1.033,0,0,0,.973.483,1.3,1.3,0,0,0,.893-.275,1.168,1.168,0,0,0,.328-.874Zm3,2.38H20.959V-7.832h1.689Z" transform="translate(581.453 3737.85)" fill="#4b84ff"/>
    <path id="Path_3943" data-name="Path 3943" d="M1726,297.549a42.209,42.209,0,0,1-12.393-4.869,7.589,7.589,0,0,0-8.125.02,38.481,38.481,0,0,1-11.24,4.561c-1.978.412-2.815,1.153-2.4,3.163.3,2.315.48,4.649.937,6.931,1.93,9.622,6.611,17.467,14.944,22.961a2.83,2.83,0,0,0,3.74-.084c10.651-7.716,15.409-18.352,15.737-31.254C1727.218,297.982,1726.786,297.709,1726,297.549Zm-.5,3.135c-.7,11.092-4.757,20.482-13.763,27.437a3.16,3.16,0,0,1-4.489.02c-7.977-6.01-12.073-14.139-13.29-23.874-.2-1.642-.977-3.576-.176-4.885.741-1.221,2.847-1.065,4.328-1.582a69.429,69.429,0,0,0,8.885-4.012,5.03,5.03,0,0,1,4.941-.084,52.03,52.03,0,0,0,12.706,5.121C1725.857,299.1,1725.464,299.952,1725.5,300.685Z" transform="translate(-1115.986 3424.773)" fill="#4b84ff"/>
  </g>
</svg>
