<?xml version="1.0" standalone="no"?>
<!DOCTYPE svg PUBLIC "-//W3C//DTD SVG 20010904//EN"
 "http://www.w3.org/TR/2001/REC-SVG-20010904/DTD/svg10.dtd">
<svg version="1.0" xmlns="http://www.w3.org/2000/svg"
 width="368.000000pt" height="307.000000pt" viewBox="0 0 368.000000 307.000000"
 preserveAspectRatio="xMidYMid meet">

<g transform="translate(0.000000,307.000000) scale(0.100000,-0.100000)"
fill="#002578" stroke="none">
<path d="M1910 2444 c-136 -26 -260 -93 -361 -193 -128 -129 -192 -280 -193
-456 -1 -127 16 -206 70 -312 l42 -85 -43 -43 c-31 -31 -48 -42 -63 -39 -11 3
-33 -1 -48 -10 -40 -21 -468 -454 -488 -493 -20 -39 -21 -115 -2 -151 16 -31
50 -64 84 -81 30 -16 114 -16 143 -1 33 17 477 459 495 492 8 15 14 37 14 50
0 13 17 40 41 64 l40 41 87 -44 c261 -131 570 -78 773 134 81 84 113 134 153
238 29 76 30 87 31 225 0 132 -2 151 -27 218 -36 101 -82 174 -153 247 -129
134 -272 196 -460 201 -60 1 -121 0 -135 -2z m252 -55 c29 -6 91 -29 138 -52
157 -76 283 -230 326 -398 22 -85 22 -235 0 -318 -86 -320 -416 -518 -739
-445 -94 22 -147 45 -223 99 -126 90 -218 231 -250 385 -31 145 -1 317 78 446
75 125 219 234 363 275 70 20 227 24 307 8z m-613 -1080 l53 -51 -36 -37 -36
-36 -52 52 -52 53 34 35 c19 19 34 35 35 35 1 0 25 -23 54 -51z m-107 -106
c40 -40 68 -76 68 -88 0 -14 -81 -101 -237 -257 -254 -252 -267 -261 -338
-238 -48 16 -78 61 -77 115 0 24 5 51 10 61 22 40 468 474 487 474 11 0 50
-30 87 -67z"/>
<path d="M1880 2291 c-92 -25 -162 -66 -230 -133 -130 -131 -187 -326 -145
-493 48 -186 175 -326 353 -387 99 -34 250 -32 345 5 132 51 233 141 293 259
76 150 71 363 -11 504 -40 70 -150 174 -217 206 -122 59 -261 73 -388 39z
m213 -32 c214 -33 372 -191 408 -407 24 -146 -26 -295 -136 -408 -262 -268
-715 -143 -809 222 -57 220 50 449 257 548 46 23 101 40 139 45 35 5 64 9 66
10 2 0 35 -4 75 -10z"/>
<path d="M1965 2000 c-51 -11 -125 -42 -173 -75 -51 -35 -142 -125 -142 -141
0 -24 70 -92 142 -140 77 -51 167 -84 231 -84 98 0 213 54 316 146 72 64 73
76 15 136 -119 120 -270 182 -389 158z m158 -76 c102 -67 99 -219 -5 -287 -82
-53 -187 -30 -239 52 -102 161 84 340 244 235z m177 -98 c22 -20 40 -41 40
-46 0 -9 -102 -101 -107 -97 -1 2 3 28 9 59 9 45 9 63 -4 101 -14 44 -14 46 4
33 10 -7 36 -30 58 -50z m-484 37 c-14 -36 -18 -100 -8 -136 6 -20 7 -37 3
-37 -14 0 -101 81 -101 93 0 13 89 96 104 97 4 0 5 -8 2 -17z"/>
<path d="M1963 1890 c-116 -70 -57 -245 77 -227 123 16 149 185 35 233 -46 19
-74 18 -112 -6z m112 -55 c50 -49 19 -125 -50 -125 -45 0 -75 29 -75 72 0 69
77 102 125 53z"/>
</g>
</svg>
