<svg xmlns="http://www.w3.org/2000/svg" width="48.717" height="50.038" viewBox="0 0 48.717 50.038">
  <g id="Group_2588" data-name="Group 2588" transform="translate(-1281.059 -443.005)">
    <path id="Path_3900" data-name="Path 3900" d="M1333.314,481.64h-31.9a2.268,2.268,0,0,1-2.267-2.266v-7.4a2.268,2.268,0,0,1,2.267-2.268h31.9a2.268,2.268,0,0,1,2.266,2.268v7.4a2.267,2.267,0,0,1-2.266,2.266Zm0,0" transform="translate(-7.157 -10.133)" fill="none" stroke="#4b84ff" stroke-width="2"/>
    <path id="Path_3901" data-name="Path 3901" d="M1329.559,515.97a2.512,2.512,0,1,1-2.512-2.516,2.513,2.513,0,0,1,2.512,2.516Zm0,0" transform="translate(-16.842 -26.821)" fill="none" stroke="#4b84ff" stroke-linecap="round" stroke-miterlimit="10" stroke-width="1.6"/>
    <rect id="Rectangle_1136" data-name="Rectangle 1136" width="38.451" height="33.662" transform="translate(1291.325 459.382)" fill="none"/>
    <path id="Path_3902" data-name="Path 3902" d="M1333.314,500.937h-31.9a2.268,2.268,0,0,1-2.267-2.266v-7.4a2.268,2.268,0,0,1,2.267-2.267h31.9a2.267,2.267,0,0,1,2.266,2.267v7.4a2.267,2.267,0,0,1-2.266,2.266Zm0,0" transform="translate(-7.157 -17.493)" fill="none" stroke="#4b84ff" stroke-width="2"/>
    <path id="Path_3903" data-name="Path 3903" d="M1299.142,517.522h15.707m5.024,0h15.707" transform="translate(-7.157 -28.372)" fill="none" stroke="#4b84ff" stroke-linecap="round" stroke-miterlimit="10" stroke-width="1.6"/>
    <rect id="Rectangle_1137" data-name="Rectangle 1137" width="38.451" height="33.662" transform="translate(1291.325 459.382)" fill="none"/>
    <line id="Line_22" data-name="Line 22" y1="3.19" transform="translate(1310.204 483.443)" fill="none" stroke="#4b84ff" stroke-miterlimit="10" stroke-width="1.6"/>
    <g id="Group_2605" data-name="Group 2605">
      <path id="Path_3904" data-name="Path 3904" d="M1309.631,478a2.2,2.2,0,1,1-2.2-2.2,2.2,2.2,0,0,1,2.2,2.2Zm0,0" transform="translate(-9.48 -12.458)" fill="#4b84ff"/>
      <path id="Path_3905" data-name="Path 3905" d="M1309.631,497.3a2.2,2.2,0,1,1-2.2-2.2,2.2,2.2,0,0,1,2.2,2.2Zm0,0" transform="translate(-9.48 -19.819)" fill="#4b84ff"/>
      <path id="Path_3906" data-name="Path 3906" d="M1349.15,477.441a.629.629,0,1,1-.629-.625.628.628,0,0,1,.629.625Zm0,0" transform="translate(-25.751 -12.846)" fill="#4b84ff"/>
      <path id="Path_3907" data-name="Path 3907" d="M1345.086,477.441a.628.628,0,1,1-.626-.625.625.625,0,0,1,.626.625Zm0,0" transform="translate(-24.202 -12.846)" fill="#4b84ff"/>
      <path id="Path_3908" data-name="Path 3908" d="M1351.181,480.489a.628.628,0,1,1-.629-.629.628.628,0,0,1,.629.629Zm0,0" transform="translate(-26.527 -14.007)" fill="#4b84ff"/>
      <path id="Path_3909" data-name="Path 3909" d="M1347.117,480.489a.628.628,0,1,1-.628-.629.629.629,0,0,1,.628.629Zm0,0" transform="translate(-24.976 -14.007)" fill="#4b84ff"/>
      <path id="Path_3910" data-name="Path 3910" d="M1341.024,477.441a.628.628,0,1,1-.629-.625.626.626,0,0,1,.629.625Zm0,0" transform="translate(-22.653 -12.846)" fill="#4b84ff"/>
      <path id="Path_3911" data-name="Path 3911" d="M1343.056,480.489a.629.629,0,1,1-.629-.629.63.63,0,0,1,.629.629Zm0,0" transform="translate(-23.427 -14.007)" fill="#4b84ff"/>
      <path id="Path_3912" data-name="Path 3912" d="M1336.96,477.441a.628.628,0,1,1-.628-.625.627.627,0,0,1,.628.625Zm0,0" transform="translate(-21.102 -12.846)" fill="#4b84ff"/>
      <path id="Path_3913" data-name="Path 3913" d="M1338.993,480.489a.629.629,0,1,1-.629-.629.63.63,0,0,1,.629.629Zm0,0" transform="translate(-21.877 -14.007)" fill="#4b84ff"/>
      <path id="Path_3914" data-name="Path 3914" d="M1332.9,477.441a.629.629,0,1,1-.629-.625.628.628,0,0,1,.629.625Zm0,0" transform="translate(-19.553 -12.846)" fill="#4b84ff"/>
      <path id="Path_3915" data-name="Path 3915" d="M1334.929,480.489a.628.628,0,1,1-.626-.629.628.628,0,0,1,.626.629Zm0,0" transform="translate(-20.328 -14.007)" fill="#4b84ff"/>
      <path id="Path_3916" data-name="Path 3916" d="M1349.15,496.741a.629.629,0,1,1-.629-.629.627.627,0,0,1,.629.629Zm0,0" transform="translate(-25.751 -20.206)" fill="#4b84ff"/>
      <path id="Path_3917" data-name="Path 3917" d="M1345.086,496.741a.628.628,0,1,1-.626-.629.625.625,0,0,1,.626.629Zm0,0" transform="translate(-24.202 -20.206)" fill="#4b84ff"/>
      <path id="Path_3918" data-name="Path 3918" d="M1351.181,499.786a.628.628,0,1,1-.629-.629.628.628,0,0,1,.629.629Zm0,0" transform="translate(-26.527 -21.367)" fill="#4b84ff"/>
      <path id="Path_3919" data-name="Path 3919" d="M1347.117,499.786a.628.628,0,1,1-.628-.629.629.629,0,0,1,.628.629Zm0,0" transform="translate(-24.976 -21.367)" fill="#4b84ff"/>
      <path id="Path_3920" data-name="Path 3920" d="M1341.024,496.741a.628.628,0,1,1-.629-.629.625.625,0,0,1,.629.629Zm0,0" transform="translate(-22.653 -20.206)" fill="#4b84ff"/>
      <path id="Path_3921" data-name="Path 3921" d="M1343.056,499.786a.629.629,0,1,1-.629-.629.63.63,0,0,1,.629.629Zm0,0" transform="translate(-23.427 -21.367)" fill="#4b84ff"/>
      <path id="Path_3922" data-name="Path 3922" d="M1336.96,496.741a.628.628,0,1,1-.628-.629.626.626,0,0,1,.628.629Zm0,0" transform="translate(-21.102 -20.206)" fill="#4b84ff"/>
      <path id="Path_3923" data-name="Path 3923" d="M1338.993,499.786a.629.629,0,1,1-.629-.629.63.63,0,0,1,.629.629Zm0,0" transform="translate(-21.877 -21.367)" fill="#4b84ff"/>
      <path id="Path_3924" data-name="Path 3924" d="M1332.9,496.741a.629.629,0,1,1-.629-.629.627.627,0,0,1,.629.629Zm0,0" transform="translate(-19.553 -20.206)" fill="#4b84ff"/>
      <path id="Path_3925" data-name="Path 3925" d="M1334.929,499.786a.628.628,0,1,1-.626-.629.628.628,0,0,1,.626.629Zm0,0" transform="translate(-20.328 -21.367)" fill="#4b84ff"/>
    </g>
    <g id="Group_2601" data-name="Group 2601" transform="translate(1281.059 463.025)">
      <path id="Path_3940" data-name="Path 3940" d="M1286.293,479.011v8.137c0,.166,6.677,0,6.677,0" transform="translate(-1282.15 -470.529)" fill="none" stroke="#4b84ff" stroke-linecap="round" stroke-width="2"/>
      <g id="Ellipse_132" data-name="Ellipse 132" fill="#fff" stroke="#4b84ff" stroke-width="2">
        <circle cx="4.354" cy="4.354" r="4.354" stroke="none"/>
        <circle cx="4.354" cy="4.354" r="3.354" fill="none"/>
      </g>
    </g>
    <g id="Group_2602" data-name="Group 2602" transform="translate(1300.356 445.38) rotate(90)">
      <path id="Path_3940-2" data-name="Path 3940" d="M0,8.211V.074c0-.166,9.41,0,9.41,0" transform="translate(4.576)" fill="none" stroke="#4b84ff" stroke-linecap="round" stroke-width="2"/>
      <g id="Ellipse_132-2" data-name="Ellipse 132" transform="translate(0 7.985)" fill="#fff" stroke="#4b84ff" stroke-width="2">
        <circle cx="4.354" cy="4.354" r="4.354" stroke="none"/>
        <circle cx="4.354" cy="4.354" r="3.354" fill="none"/>
      </g>
    </g>
    <g id="Group_2603" data-name="Group 2603" transform="translate(1313.514 443.005) rotate(90)">
      <path id="Path_3940-3" data-name="Path 3940" d="M0,0H9.41" transform="translate(6.951 4.524)" fill="none" stroke="#4b84ff" stroke-linecap="round" stroke-width="2"/>
      <g id="Ellipse_132-3" data-name="Ellipse 132" transform="translate(0 0)" fill="#fff" stroke="#4b84ff" stroke-width="2">
        <circle cx="4.354" cy="4.354" r="4.354" stroke="none"/>
        <circle cx="4.354" cy="4.354" r="3.354" fill="none"/>
      </g>
    </g>
  </g>
</svg>
