<svg xmlns="http://www.w3.org/2000/svg" width="45.783" height="48.957" viewBox="0 0 45.783 48.957">
  <g id="www_1_" data-name="www (1)" transform="translate(-1.617 0)">
    <path id="Path_3929" data-name="Path 3929" d="M1.924,16.559l45.251.025c.436,0,.151-.752-.134-1.58A24.307,24.307,0,0,0,25.007.018h-.029A1.18,1.18,0,0,0,24.83.011a4.042,4.042,0,0,0-.611,0A1.565,1.565,0,0,0,24,.021H23.96A24.306,24.306,0,0,0,1.924,15c-.312.832-.436,1.555,0,1.555ZM31.3,7.518a59.114,59.114,0,0,1-6.024.371V1.663c2.237.408,4.359,2.538,6.024,5.855Zm-7.6-5.855V7.889a59.054,59.054,0,0,1-6.021-.371c1.658-3.292,3.772-5.417,6.021-5.855Zm0,7.805V15H15.163A33.043,33.043,0,0,1,16.97,9.022a60.005,60.005,0,0,0,6.723.447Zm1.58,0a59.784,59.784,0,0,0,6.721-.447A33.168,33.168,0,0,1,33.8,15H25.272ZM33.6,8.792c1.091-.176,2.119-.383,3.07-.62A24.015,24.015,0,0,1,40.277,15H35.409A35.172,35.172,0,0,0,33.6,8.792ZM32.947,7.3a18.065,18.065,0,0,0-2.958-4.538,16.7,16.7,0,0,1,5.55,4.058c-.813.182-1.68.342-2.592.48Zm-16.927,0q-1.371-.207-2.594-.48a16.706,16.706,0,0,1,5.56-4.065A17.979,17.979,0,0,0,16.019,7.3Zm-.652,1.492A35.237,35.237,0,0,0,13.556,15H8.687A24.006,24.006,0,0,1,12.3,8.172c.949.237,1.977.445,3.068.62ZM45.318,15H41.942A26.027,26.027,0,0,0,38.3,7.714q.687-.218,1.295-.46A22.835,22.835,0,0,1,45.318,15ZM38.167,6.1q-.437.148-.912.287a20.334,20.334,0,0,0-2.211-2.242A22.594,22.594,0,0,1,38.167,6.1ZM11.71,6.385q-.474-.138-.912-.287a22.73,22.73,0,0,1,3.127-1.956A20.451,20.451,0,0,0,11.71,6.385Zm-2.339.869q.606.242,1.294.46A26.035,26.035,0,0,0,7.023,15H3.647a22.841,22.841,0,0,1,5.723-7.75Zm0,0" transform="translate(0 0)" fill="#4b84ff"/>
    <path id="Path_3930" data-name="Path 3930" d="M47.175,327.988H1.79c-.436,0,.083,1.39.134,1.58a24.307,24.307,0,0,0,22.034,14.986h.029a1.047,1.047,0,0,0,.148.007h.126c.079.005.152.006.226.006.1,0,.192,0,.251-.006a1.423,1.423,0,0,0,.237-.011h.035a24.307,24.307,0,0,0,22.031-14.982c.177-.5.57-1.58.134-1.58Zm-29.507,9.065a59.118,59.118,0,0,1,6.024-.371v6.226C21.456,342.5,19.334,340.37,17.669,337.053Zm7.6,5.855v-6.226a59.057,59.057,0,0,1,6.021.371C29.636,340.344,27.521,342.47,25.272,342.908Zm0-7.805v-5.535H33.8a33.044,33.044,0,0,1-1.807,5.982,60,60,0,0,0-6.723-.447Zm-1.58,0a59.774,59.774,0,0,0-6.721.447,33.171,33.171,0,0,1-1.809-5.983h8.529Zm-8.326.676c-1.091.176-2.119.383-3.07.62a24.015,24.015,0,0,1-3.61-6.831h4.87a35.167,35.167,0,0,0,1.809,6.212Zm.651,1.492a18.065,18.065,0,0,0,2.958,4.541,16.691,16.691,0,0,1-5.55-4.061c.813-.182,1.68-.342,2.592-.48Zm16.927,0q1.37.207,2.594.48a16.714,16.714,0,0,1-5.56,4.066,18,18,0,0,0,2.965-4.546Zm.652-1.492a35.237,35.237,0,0,0,1.811-6.212h4.869a24.005,24.005,0,0,1-3.612,6.831c-.949-.237-1.977-.445-3.068-.62ZM3.647,329.567H7.023a26.027,26.027,0,0,0,3.639,7.29q-.687.218-1.295.46a22.835,22.835,0,0,1-5.72-7.75Zm7.151,8.905q.437-.148.912-.287a20.4,20.4,0,0,0,2.215,2.242,22.658,22.658,0,0,1-3.127-1.955Zm26.457-.287q.474.139.912.287a22.735,22.735,0,0,1-3.127,1.956A20.447,20.447,0,0,0,37.255,338.186Zm2.339-.869q-.606-.242-1.294-.46a26.035,26.035,0,0,0,3.642-7.29h3.375a22.841,22.841,0,0,1-5.723,7.75Zm0,0" transform="translate(0 -295.61)" fill="#4b84ff"/>
    <path id="Path_3931" data-name="Path 3931" d="M-17.175-8.641v-1.57h6.453v1.57h-2.25v7.055h2.25V0h-6.453V-1.586h2.25V-8.641ZM3.57-3.086a3.213,3.213,0,0,1-.309,1.453A2.773,2.773,0,0,1,2.4-.613a3.84,3.84,0,0,1-1.32.6A6.754,6.754,0,0,1-.594.18,12.53,12.53,0,0,1-2.148.086,9.18,9.18,0,0,1-3.633-.227v-1.9q.359.125.75.234T-2.1-1.7q.395.082.785.129a6.361,6.361,0,0,0,.758.047,3.965,3.965,0,0,0,.93-.094A1.93,1.93,0,0,0,1-1.875a1,1,0,0,0,.352-.391,1.135,1.135,0,0,0,.109-.5.94.94,0,0,0-.215-.629A2.008,2.008,0,0,0,.68-3.844a5.1,5.1,0,0,0-.8-.352q-.449-.156-.914-.336t-.914-.406a3.306,3.306,0,0,1-.8-.562,2.608,2.608,0,0,1-.566-.8,2.657,2.657,0,0,1-.215-1.121,3,3,0,0,1,.219-1.141A2.44,2.44,0,0,1-2.625-9.5a3.467,3.467,0,0,1,1.2-.641,5.787,5.787,0,0,1,1.773-.238q.3,0,.637.027t.656.07q.324.043.625.1t.551.121V-8.3a5.67,5.67,0,0,0-.547-.172q-.3-.078-.613-.137T1.023-8.7Q.7-8.734.414-8.734a3.845,3.845,0,0,0-.859.082,1.86,1.86,0,0,0-.578.227.871.871,0,0,0-.328.355,1.066,1.066,0,0,0-.1.469.78.78,0,0,0,.215.551,2.068,2.068,0,0,0,.57.414,6.552,6.552,0,0,0,.8.344q.449.16.922.344a9.167,9.167,0,0,1,.922.418,3.565,3.565,0,0,1,.8.57,2.6,2.6,0,0,1,.57.793A2.522,2.522,0,0,1,3.57-3.086ZM18.058-5.148a7.87,7.87,0,0,1-.324,2.4,4.646,4.646,0,0,1-.891,1.656,3.523,3.523,0,0,1-1.328.961A4.249,4.249,0,0,1,13.886.18a3.564,3.564,0,0,1-3.031-1.34A6.365,6.365,0,0,1,9.84-5.055a7.87,7.87,0,0,1,.324-2.4,4.646,4.646,0,0,1,.891-1.656,3.523,3.523,0,0,1,1.328-.961,4.249,4.249,0,0,1,1.629-.312,3.568,3.568,0,0,1,3.031,1.336A6.362,6.362,0,0,1,18.058-5.148Zm-2.031.094a5.849,5.849,0,0,0-.484-2.7,1.674,1.674,0,0,0-1.594-.891,1.829,1.829,0,0,0-.945.23,1.793,1.793,0,0,0-.645.676,3.438,3.438,0,0,0-.371,1.1,8.53,8.53,0,0,0-.117,1.5,5.808,5.808,0,0,0,.488,2.7,1.676,1.676,0,0,0,1.59.891,1.851,1.851,0,0,0,.949-.23,1.755,1.755,0,0,0,.645-.676,3.5,3.5,0,0,0,.367-1.1A8.53,8.53,0,0,0,16.027-5.055Z" transform="translate(23.482 29.519)" fill="#4b84ff" stroke="#4b84ff" stroke-linecap="round" stroke-linejoin="round" stroke-width="0.5"/>
  </g>
</svg>
