<svg id="Layer_1" data-name="Layer 1" xmlns="http://www.w3.org/2000/svg" viewBox="0 0 512 512"><defs><style>.cls-1{fill:#141f38;}</style></defs><title>eye-outline</title><path class="cls-1" d="M487.89,199.33C436.24,151.11,351.62,89.6,256,89.6S75.76,151.11,24.11,199.33c-32.15,30-32.15,83.32,0,113.33C75.76,360.89,160.38,422.4,256,422.4s180.24-61.51,231.89-109.73C520,282.65,520,229.35,487.89,199.33ZM470.42,294C420.17,340.87,342.18,396.8,256,396.8S91.83,340.87,41.58,294c-10.16-9.48-16-23.32-16-38s5.83-28.47,16-38C91.83,171.13,169.82,115.2,256,115.2S420.17,171.13,470.42,218c10.16,9.48,16,23.32,16,38S480.57,284.47,470.42,294ZM256,140.8A115.2,115.2,0,1,0,371.2,256,115.2,115.2,0,0,0,256,140.8Zm0,204.8A89.6,89.6,0,1,1,345.6,256,89.7,89.7,0,0,1,256,345.6ZM256,192a64,64,0,1,0,64,64A64,64,0,0,0,256,192Zm0,102.4A38.4,38.4,0,1,1,294.4,256,38.44,38.44,0,0,1,256,294.4Zm-12.8-256V12.8a12.8,12.8,0,1,1,25.6,0V38.4a12.8,12.8,0,1,1-25.6,0ZM93.35,60.25a12.8,12.8,0,1,1,18.1-18.1l25.6,25.6a12.8,12.8,0,1,1-18.1,18.1Zm294.4,25.6a12.8,12.8,0,0,1,0-18.1l25.6-25.6a12.8,12.8,0,0,1,18.1,18.1l-25.6,25.6a12.8,12.8,0,0,1-18.1,0ZM268.8,473.6v25.6a12.8,12.8,0,0,1-25.6,0V473.6a12.8,12.8,0,1,1,25.6,0ZM137.05,426.15a12.8,12.8,0,0,1,0,18.1l-25.6,25.6a12.8,12.8,0,0,1-18.1-18.1l25.6-25.6A12.8,12.8,0,0,1,137.05,426.15Zm294.4,25.6a12.8,12.8,0,1,1-18.1,18.1l-25.6-25.6a12.8,12.8,0,0,1,18.1-18.1Z"/></svg>