<svg id="Capa_1" enable-background="new 0 0 512.242 512.242" height="512" viewBox="0 0 512.242 512.242" width="512" xmlns="http://www.w3.org/2000/svg"><g><g><g id="XMLID_245_"><g><path d="m246.046 139-67.432 25.076c-3.51 2.96-6.91 6.05-10.2 9.26l-12.79 12.49c-.65.63-1.38 1.17-2.19 1.59l-29.15 15.24c-5.18 2.71-8.15 7.99-8.15 13.47 0 2.37.55 4.78 1.73 7.03 3.89 7.43 13.06 10.31 20.5 6.42l29.15-15.24c.8-.42 1.66-.72 2.55-.89l17.56-3.38c18.3-3.52 35.99-9.7 52.51-18.33l52.11-27.25 7.366-16.766z" fill="#fbe88c"/></g></g><path d="m140.281 219.889 29.15-15.24c.81-.42 1.54-.96 2.19-1.59l12.79-12.49c3.29-3.21 6.69-6.3 10.2-9.26 10.71-9.04 22.38-16.89 34.82-23.4l31.832-16.432-15.217-2.477-67.432 25.076c-3.51 2.96-6.91 6.05-10.2 9.26l-12.79 12.49c-.65.63-1.38 1.17-2.19 1.59l-29.15 15.24c-5.18 2.71-8.15 7.99-8.15 13.47 0 2.37.55 4.78 1.73 7.03 2.869 5.48 8.612 8.474 14.414 8.112.652-4.699 3.487-9.016 8.003-11.379z" fill="#fbe372"/><path d="m343.364 73.606 24.53 49.07-20.7 13.08-54.95 28.73-113.63-.41c10.71-9.04 22.38-16.89 34.82-23.4l107.06-55.97z" fill="#f8f3f2"/><path d="m229.431 157.909 124.061-64.041-10.129-20.262-22.87 11.1-107.06 55.97c-12.44 6.51-24.11 14.36-34.82 23.4l39.715.143c3.63-2.219 7.327-4.334 11.103-6.31z" fill="#f2eae7"/><path d="m378.045 112.373 24.253-12.68c1.33-.695 2.76-1.178 4.238-1.432l30.962-5.313c22.977-3.943 35.443-29.133 24.642-49.793-10.801-20.659-38.601-24.797-54.951-8.179l-22.032 22.393c-1.052 1.07-2.265 1.968-3.595 2.663l-24.253 12.68-23.914 13.514 19.956 39.913z" fill="#cac5cb"/><g><path d="m424.354 269.496h-52.69c-10.75 0-21.22 3.5-29.81 9.97l-43.33 32.61v34.356h150.42v-52.346c0-13.58-11.01-24.59-24.59-24.59z" fill="#ffe0d1"/></g><g><g><path d="m448.944 297.076h-130.49l-19.93 15v34.356h150.42z" fill="#ffd1c2"/><path d="m504.744 340.356v-12.7c0-8.6-6.98-15.58-15.59-15.58h-40.21-150.42-274.619c-9.058 0-16.401 7.343-16.401 16.401v120.738c0 9.058 7.343 16.401 16.401 16.401h231.689l14.75 11.72c8.32 6.61 18.63 10.21 29.26 10.21h189.55c8.61 0 15.59-6.98 15.59-15.59v-12.69c0-8.61-6.98-15.59-15.59-15.59 8.61 0 15.59-6.98 15.59-15.58v-12.7c0-8.61-6.98-15.59-15.59-15.59 8.61 0 15.59-6.97 15.59-15.58v-12.7c0-8.6-6.98-15.58-15.59-15.58 8.61 0 15.59-6.98 15.59-15.59z" fill="#ffe0d1"/><g><path d="m498.723 446.957c-2.641 2.054-5.964 3.298-9.569 3.298h-189.55c-10.63 0-20.94-3.6-29.26-10.21-9.551-7.589-21.39-11.72-33.589-11.72h-212.85c-9.058 0-16.401-7.343-16.401-16.401v37.291c0 9.058 7.343 16.401 16.401 16.401h231.689l14.75 11.72c8.32 6.61 18.63 10.21 29.26 10.21h189.55c8.61 0 15.59-6.98 15.59-15.59v-12.69c0-5.005-2.355-9.456-6.021-12.309z" fill="#ffd1c2"/></g></g><circle cx="334.368" cy="359.11" fill="#f3b3a1" r="16.021"/><ellipse cx="407.705" cy="428.951" fill="#ffd1c2" rx="17.311" ry="14.727"/><circle cx="162.612" cy="421.744" fill="#f3b3a1" r="15.641"/><path d="m165.748 331.904c0 21.882-17.738 39.62-39.62 39.62s-39.62-17.738-39.62-39.62c0-16.319 22.036-43.839 33.24-56.777 3.369-3.89 9.391-3.89 12.76 0 11.204 12.939 33.24 40.459 33.24 56.777z" fill="#fbe88c"/><path d="m150.498 361.733c-21.881 0-39.62-17.739-39.62-39.62 0-12.282 12.481-30.906 23.432-44.885-.624-.733-1.23-1.44-1.802-2.1-3.369-3.891-9.391-3.891-12.76 0-11.204 12.938-33.24 40.458-33.24 56.777 0 21.881 17.739 39.62 39.62 39.62 10.006 0 19.15-3.713 26.123-9.831-.577.024-1.169.039-1.753.039z" fill="#fbe372"/><path d="m351.23 143.489-34.775-66.513c-4.885-9.343-1.271-20.877 8.072-25.762 9.343-4.885 20.877-1.271 25.762 8.072l34.775 66.513c4.885 9.343 1.271 20.877-8.072 25.762-9.343 4.885-20.877 1.271-25.762-8.072z" fill="#a59ca6"/></g></g><g><path d="m512.242 327.661c0-12.729-10.355-23.084-23.084-23.084h-32.717v-10.492c0-17.694-14.395-32.089-32.089-32.089h-17.978c-4.143 0-7.5 3.357-7.5 7.5s3.357 7.5 7.5 7.5h17.978c9.423 0 17.089 7.666 17.089 17.089v10.492h-10.282c-4.143 0-7.5 3.357-7.5 7.5s3.357 7.5 7.5 7.5h57.999c4.458 0 8.084 3.626 8.084 8.084v12.699c0 4.458-3.626 8.084-8.084 8.084h-9.673c-4.143 0-7.5 3.357-7.5 7.5s3.357 7.5 7.5 7.5h9.673c4.458 0 8.084 3.626 8.084 8.083v12.699c0 4.458-3.626 8.084-8.084 8.084h-9.673c-4.143 0-7.5 3.357-7.5 7.5s3.357 7.5 7.5 7.5h9.673c4.458 0 8.084 3.626 8.084 8.084v12.699c0 4.458-3.626 8.084-8.084 8.084h-9.673c-4.143 0-7.5 3.357-7.5 7.5s3.357 7.5 7.5 7.5h9.673c4.458 0 8.084 3.626 8.084 8.084v12.699c0 4.458-3.626 8.084-8.084 8.084h-189.555c-8.896 0-17.63-3.049-24.594-8.583l-14.748-11.722c-1.327-1.055-2.972-1.629-4.667-1.629h-248.093c-4.143 0-7.5 3.357-7.5 7.5s3.357 7.5 7.5 7.5h245.476l12.699 10.094c9.607 7.635 21.656 11.84 33.927 11.84h189.556c12.729 0 23.084-10.355 23.084-23.084v-12.699c0-6.002-2.304-11.474-6.072-15.584 3.768-4.11 6.072-9.582 6.072-15.584v-12.699c0-6.002-2.304-11.474-6.072-15.584 3.768-4.11 6.072-9.582 6.072-15.584v-12.699c0-6.001-2.304-11.474-6.072-15.583 3.768-4.11 6.072-9.582 6.072-15.584v-12.699z"/><path d="m7.5 319.577h52.703c4.143 0 7.5-3.357 7.5-7.5s-3.357-7.5-7.5-7.5h-52.703c-4.143 0-7.5 3.357-7.5 7.5s3.357 7.5 7.5 7.5z"/><path d="m374.412 276.996c4.143 0 7.5-3.357 7.5-7.5s-3.357-7.5-7.5-7.5h-2.745c-12.303 0-24.493 4.074-34.323 11.474l-41.33 31.107h-103.961c-4.143 0-7.5 3.357-7.5 7.5s3.357 7.5 7.5 7.5h106.468c1.627 0 3.21-.529 4.51-1.508l43.333-32.615c7.247-5.454 16.233-8.458 25.304-8.458z"/><path d="m357.89 359.111c0-12.97-10.552-23.521-23.521-23.521s-23.521 10.552-23.521 23.521 10.552 23.521 23.521 23.521 23.521-10.552 23.521-23.521zm-32.043 0c0-4.699 3.822-8.521 8.521-8.521s8.521 3.822 8.521 8.521-3.822 8.521-8.521 8.521-8.521-3.822-8.521-8.521z"/><path d="m382.894 428.951c0 12.256 11.131 22.227 24.812 22.227s24.811-9.971 24.811-22.227-11.13-22.228-24.811-22.228-24.812 9.972-24.812 22.228zm24.811-7.227c5.317 0 9.811 3.31 9.811 7.228 0 3.917-4.493 7.227-9.811 7.227s-9.812-3.31-9.812-7.227c.001-3.919 4.494-7.228 9.812-7.228z"/><path d="m162.611 398.604c-12.76 0-23.141 10.381-23.141 23.141s10.381 23.141 23.141 23.141c12.761 0 23.142-10.381 23.142-23.141s-10.381-23.141-23.142-23.141zm0 31.281c-4.488 0-8.141-3.652-8.141-8.141s3.652-8.141 8.141-8.141 8.142 3.652 8.142 8.141-3.652 8.141-8.142 8.141z"/><path d="m220.643 367.632c-4.143 0-7.5 3.357-7.5 7.5s3.357 7.5 7.5 7.5h7.578c4.143 0 7.5-3.357 7.5-7.5s-3.357-7.5-7.5-7.5z"/><path d="m307.005 410.062c-4.143 0-7.5 3.357-7.5 7.5s3.357 7.5 7.5 7.5h10.081c4.143 0 7.5-3.357 7.5-7.5s-3.357-7.5-7.5-7.5z"/><path d="m52.941 414.402c0 4.143 3.357 7.5 7.5 7.5h9.088c4.143 0 7.5-3.357 7.5-7.5s-3.357-7.5-7.5-7.5h-9.088c-4.142 0-7.5 3.358-7.5 7.5z"/><path d="m126.128 379.025c25.982 0 47.12-21.138 47.12-47.12 0-17.515-19.071-43.213-35.07-61.687-3.031-3.5-7.422-5.508-12.048-5.508-.001 0-.001 0-.002 0-4.626 0-9.018 2.007-12.05 5.508-15.999 18.476-35.07 44.175-35.07 61.687 0 25.982 21.138 47.12 47.12 47.12zm-.711-98.988c.188-.217.428-.327.711-.327s.522.109.71.327c19.375 22.371 31.41 42.245 31.41 51.867 0 17.711-14.409 32.12-32.12 32.12s-32.12-14.409-32.12-32.12c0-9.62 12.035-29.494 31.409-51.867z"/><path d="m131.362 238.802c3.539 0 7.128-.829 10.475-2.579l29.154-15.243c.152-.079.316-.137.492-.17l17.554-3.378c19.035-3.664 37.395-10.074 54.568-19.053l100.412-52.499.566 1.083c3.291 6.294 8.836 10.93 15.613 13.054 2.623.822 5.309 1.229 7.981 1.229 4.232 0 8.431-1.022 12.288-3.039 6.295-3.291 10.931-8.836 13.054-15.613 2.124-6.777 1.481-13.976-1.81-20.27l-3.545-6.78 17.609-9.207c.636-.333 1.319-.563 2.03-.686l30.961-5.313c1.299-.223 2.639-.525 4.097-.927 3.994-1.099 6.341-5.227 5.242-9.221-1.1-3.994-5.224-6.341-9.221-5.242-.979.27-1.847.468-2.655.606l-30.961 5.313c-2.255.387-4.423 1.119-6.444 2.177l-17.608 9.206-13.786-26.368 17.606-9.205c2.027-1.06 3.868-2.424 5.466-4.051l22.033-22.393c6.092-6.191 14.512-9.008 23.105-7.731 8.592 1.279 15.828 6.428 19.853 14.125 3.463 6.625 4.027 14.15 1.588 21.19-1.355 3.913.718 8.186 4.632 9.542 3.911 1.354 8.186-.718 9.542-4.632 3.807-10.985 2.93-22.723-2.469-33.05-6.272-11.996-17.549-20.02-30.938-22.012-13.396-1.993-26.513 2.398-36.006 12.048l-22.036 22.396c-.503.512-1.081.94-1.72 1.274l-17.607 9.205-3.544-6.779c-3.291-6.295-8.836-10.931-15.613-13.054-6.777-2.125-13.977-1.482-20.27 1.81-6.295 3.291-10.931 8.836-13.054 15.613-2.124 6.777-1.481 13.976 1.81 20.27l.566 1.083-27.245 14.249c-3.671 1.919-5.091 6.451-3.172 10.121 1.339 2.562 3.95 4.027 6.652 4.027 1.171 0 2.359-.275 3.469-.855l27.25-14.247 19.742 37.761-46.671 24.401h-89.82c5.27-3.49 10.714-6.725 16.334-9.664l44.814-23.43c3.671-1.919 5.091-6.45 3.172-10.121-1.919-3.672-6.451-5.091-10.121-3.172l-44.814 23.43c-17.177 8.981-32.918 20.399-46.785 33.939l-12.79 12.486c-.127.124-.271.228-.427.31l-29.149 15.24c-5.371 2.808-9.327 7.539-11.14 13.323-1.812 5.783-1.264 11.926 1.544 17.298 4.049 7.741 11.965 12.175 20.147 12.175zm190.951-174.137c.926-2.954 2.946-5.37 5.689-6.805 2.745-1.435 5.882-1.714 8.836-.789 2.954.926 5.37 2.946 6.805 5.689l34.774 66.513c1.435 2.744 1.715 5.882.789 8.836s-2.946 5.37-5.689 6.805-5.883 1.716-8.835.789c-2.955-.926-5.371-2.946-6.806-5.689l-34.774-66.513c-1.434-2.744-1.714-5.882-.789-8.836zm-194.552 144.635 29.147-15.239c1.451-.759 2.782-1.724 3.957-2.87l12.791-12.487c2.37-2.314 4.818-4.537 7.304-6.715h80.747l-25.051 13.098c-15.879 8.302-32.854 14.229-50.453 17.615l-17.55 3.378c-1.613.31-3.168.852-4.616 1.61l-29.149 15.24c-3.759 1.965-8.413.506-10.379-3.252-1.965-3.758-.506-8.413 3.252-10.378z"/></g></g></svg>