<svg id="Capa_1" enable-background="new 0 0 511.112 511.112" height="512" viewBox="0 0 511.112 511.112" width="512" xmlns="http://www.w3.org/2000/svg"><g><g><g><path d="m289.904 383.279v-183.352l1.034-42.554 2.039-23.03c6.029-68.105-45.937-126.843-112.219-126.843h-3.626c-66.282 0-118.248 58.738-112.219 126.843l2.039 23.03 1.034 42.554v183.352 62.006h219.037z" fill="#a79ba7"/></g><path d="m137.388 254.695v96.44 59.677h77.826l4.154-59.677v-96.44z" fill="#fed2a4"/><path d="m153.551 296.511v3.513h-16.162v51.111 59.677h25.366v-53.473-9.484c0-5.69 4.833-10.178 10.507-9.754 2.006.15 4.022.226 6.044.226h.002c9.466 0 18.861-1.637 27.77-4.838l3.509-1.261c3-1.078 5.924-2.293 8.781-3.613v-32.104z" fill="#ffbd86"/><path d="m234.715 501.2 29.816-28.002-33.622-117.05-11.541-5.013-33.66 22.612c-4.47 2.99-10.32 2.99-14.78-.01l-33.54-22.603-10.707 4.651-66.816 71.963 5.16 37.667 78.219 36.021z" fill="#c8effe"/><g><path d="m88.381 208.551c-15.712 0-28.449-12.737-28.449-28.449 0-15.712 12.737-28.449 28.449-28.449h49.008v59.154z" fill="#ffbd86"/><path d="m268.509 208.551c15.712 0 28.449-12.737 28.449-28.449 0-15.712-12.737-28.449-28.449-28.449h-.776-43.969v58.301z" fill="#fed2a4"/><path d="m200.673 141.417-47.762-34.521-19.528 18.916-32.018 48.708 10.877 86.066 36.886 43.506 35.467 14.101 35.13-6.275c29.316-16.4 48.047-47.563 48.047-81.944v-59.934l-7.372-10.654z" fill="#ffe5c2"/><path d="m261.492 140.27-27.182-3.845c-31.583-4.467-60.443-20.33-81.143-44.599-3.472 0-7.929 2.337-9.903 5.193l-11.052 15.988c-9.418 13.624-23.335 22.971-38.8 28.897-1.932.74-3.217 2.598-3.217 4.679v83.1c0 39.762 25.04 75.215 62.513 88.511l4.255 1.51c14.611 5.184 30.566 5.152 45.156-.092l3.5-1.258c5.169-1.858 9.486-3.791 14.145-6.445-10.724 1.554-21.13.15-31.468-3.518l-4.257-1.51c-37.473-13.296-62.513-48.749-62.513-88.511v-44.389c0-6.976 2.925-13.635 8.079-18.337 4.354-3.972 8.271-8.444 11.662-13.348l13.862-20.053c1.552-2.246 4.796-2.379 6.568-.302 20.698 24.252 49.547 40.103 81.118 44.569l24.958 3.53v-22.54c-.001-3.637-2.679-6.721-6.281-7.23z" fill="#fed2a4"/><path d="m178.878 500.845-36.217-57.677-27.005-68.212-31.328-.54c-40.99 17.98-67.47 58.51-67.47 103.28v17.167c0 4.401 3.582 7.961 7.983 7.933l154.047-.951z" fill="#f9f3f1"/></g><path d="m273.638 374.955-20.056 2.592-55.872 88.152-18.832 35.146.01 1 154.483-.959c3.611-.022 6.527-2.956 6.527-6.568v-16.623c0-44.33-25.96-84.5-66.26-102.74z" fill="#f9f3f1"/><path d="m255.298 431.152v-7.646l31.724-41.354c-4.261-2.67-8.722-5.086-13.384-7.196l-20.056 2.592-55.872 88.152-18.832 35.146.01 1 19.094-.119 54.307-62.52c1.94-2.236 3.009-5.096 3.009-8.055z" fill="#f3eae6"/><path d="m272.428 374.415c.41.18.81.36 1.21.54l-33.34 43.46v11.72l-61.42 70.71 51.72-143.95.31-.7z" fill="#faf7f7"/><path d="m178.878 500.845-61.42-70.71v-11.72l-33.13-44c-40.99 17.98-67.47 58.51-67.47 103.28v17.167c0 4.401 3.582 7.961 7.983 7.933l27.872-.172v-12.431c0-27.364 9.902-53.134 26.957-73.145 4.897-5.746 13.872-5.452 18.415.578l4.373 5.805v12.311l57.521 66.221 18.909-.117z" fill="#f3eae6"/><g><g id="XMLID_653_"><g><path d="m127.158 356.895 51.72 143.95-61.42-70.71v-11.72l-33.13-44 42.36-18.59z" fill="#faf7f7"/></g></g></g><g><circle cx="373.856" cy="383.279" fill="#c8effe" r="120.334"/><path d="m297.639 383.279c0-58.923 42.368-107.958 98.29-118.319-7.152-1.325-14.537-2.014-22.073-2.014-66.458 0-120.334 53.875-120.334 120.333s53.875 120.333 120.334 120.333c7.535 0 14.926-.696 22.078-2.021-55.922-10.361-98.295-59.389-98.295-118.312z" fill="#99e6fc"/><path d="m467.007 379.943c1.447 2.006 1.447 4.665 0 6.671-9.584 13.289-47.651 61.744-93.151 61.744s-83.567-48.455-93.151-61.744c-1.447-2.006-1.447-4.665 0-6.671 9.584-13.289 47.651-61.744 93.151-61.744s83.567 48.456 93.151 61.744z" fill="#faf7f7"/><circle cx="373.856" cy="383.279" fill="#a79ba7" r="65.079"/><circle cx="373.856" cy="383.279" fill="#918291" r="27.776"/></g><path d="m297.639 383.279c0-9.275 1.052-18.304 3.039-26.977-9.606 9.815-16.578 18.935-19.972 23.642-1.447 2.006-1.447 4.665 0 6.671 3.395 4.707 10.367 13.827 19.973 23.643-1.988-8.674-3.04-17.704-3.04-26.979z" fill="#efedef"/><path d="m117.158 500.841h-61.778c-2.884 0-5.223-2.338-5.223-5.223v-15.968c0-2.884 2.338-5.223 5.223-5.223h61.777c2.884 0 5.223 2.338 5.223 5.223v15.969c.001 2.884-2.338 5.222-5.222 5.222z" fill="#c8effe"/></g><g><path d="m117.225 467.178h-61.778c-7.015 0-12.723 5.707-12.723 12.723v15.968c0 7.016 5.708 12.723 12.723 12.723h61.778c7.015 0 12.723-5.707 12.723-12.723v-15.969c-.001-7.015-5.708-12.722-12.723-12.722zm-2.278 26.413h-57.223v-11.413h57.223z"/><path d="m458.753 287.717c-3.096-2.753-7.836-2.471-10.588.622-2.752 3.096-2.473 7.837.623 10.589 24.088 21.413 37.903 52.158 37.903 84.352 0 62.217-50.617 112.833-112.833 112.833s-112.833-50.616-112.833-112.833 50.617-112.834 112.833-112.834c17.311 0 33.923 3.819 49.376 11.353 3.724 1.815 8.213.268 10.028-3.455s.268-8.213-3.455-10.027c-17.517-8.54-36.341-12.87-55.949-12.87-28.643 0-55.116 9.469-76.453 25.441v-79.438c4.427-5.974 7.055-13.358 7.055-21.349 0-7.583-2.366-14.62-6.39-20.425.169-.523.289-1.071.339-1.642l2.039-23.029c3.125-35.302-8.627-70.346-32.245-96.146-22.938-25.059-53.994-38.859-87.445-38.859h-3.626c-41.158 0-79.012 21.341-101.259 57.088-2.188 3.517-1.112 8.142 2.405 10.33 3.519 2.189 8.142 1.112 10.331-2.404 19.489-31.318 52.582-50.014 88.522-50.014h3.626c29.192 0 56.318 12.07 76.38 33.986 20.783 22.705 31.123 53.575 28.368 84.696l-1.249 14.11c-2.9-1.419-6.019-2.452-9.289-3.048-1.172-6.097-6.138-11-12.464-11.894l-27.182-3.845c-29.795-4.214-56.959-19.144-76.487-42.039-2.363-2.77-5.796-4.252-9.439-4.068-3.636.184-6.909 2.007-8.979 5.002l-13.862 20.053c-8.576 12.406-21.159 21.924-35.431 26.798 0 0-.001.001-.001.001-4.42 1.51-7.573 5.328-8.303 9.832-3.239.505-6.332 1.452-9.225 2.764l-1.21-13.665c-1.218-13.754.047-27.373 3.76-40.479 1.129-3.985-1.187-8.131-5.172-9.26-3.985-1.128-8.131 1.187-9.26 5.172-4.212 14.87-5.648 30.311-4.269 45.89l2.039 23.029c.018.203.048.402.082.6-4.478 5.995-7.132 13.427-7.132 21.468 0 8.582 3.027 16.467 8.063 22.655-.001.057-.009.112-.009.17v111.752c0 4.143 3.358 7.5 7.5 7.5s7.5-3.357 7.5-7.5v-101.03c2.288.882 4.686 1.541 7.17 1.94v14.102c0 35.219 18.341 67.429 47.294 85.74v31.054l-48.567 21.308c-2.002.878-3.961 1.824-5.897 2.802v-23.952c0-4.143-3.358-7.5-7.5-7.5s-7.5 3.357-7.5 7.5v32.949c-31.6 22.239-51.063 58.739-51.063 98.353v25.146c0 4.143 3.358 7.5 7.5 7.5s7.5-3.357 7.5-7.5v-25.146c0-39.809 22.452-76.028 57.664-93.881l27.933 37.104v9.213c0 1.808.653 3.554 1.838 4.919l61.425 70.71c1.467 1.688 3.551 2.581 5.666 2.581 1.297 0 2.605-.336 3.789-1.029.676-.396 1.264-.889 1.767-1.445.035-.035 61.528-70.816 61.528-70.816 1.185-1.365 1.838-3.111 1.838-4.919v-9.213l2.798-3.717c14.984 53.948 64.532 93.661 123.188 93.661 70.488 0 127.833-57.346 127.833-127.833 0-36.475-15.65-71.306-42.937-95.564zm-183.52-127.424c8.26 2.804 14.225 10.611 14.225 19.809 0 9.196-5.968 16.993-14.225 19.8zm0 69.686v-14.566c2.491-.473 4.888-1.213 7.17-2.173v80.818c-16.454 16.862-28.295 38.238-33.47 62.076l-21.994-9.649v-30.146c29.521-18.206 48.294-50.779 48.294-86.36zm-207.802-49.877c0-9.565 6.451-17.635 15.225-20.134v40.269c-8.774-2.5-15.225-10.57-15.225-20.135zm30.225 49.589v-81.341c16.594-6.065 31.187-17.329 41.237-31.868l11.411-16.508c21.658 23.831 50.937 39.36 82.917 43.883l27.012 3.821v82.301c0 36.35-22.983 69.031-57.19 81.325l-3.5 1.258c-12.923 4.645-27.168 4.674-40.11.082l-4.253-1.509c-34.407-12.205-57.524-44.936-57.524-81.444zm52.509 95.581 4.253 1.509c8.05 2.856 16.501 4.283 24.954 4.283 8.554 0 17.109-1.463 25.245-4.387l3.5-1.258c1.288-.463 2.562-.952 3.823-1.464v23.453l-30.38 20.606c-1.928 1.308-4.42 1.308-6.346-.004l-30.264-20.595v-24.179c1.716.72 3.448 1.41 5.215 2.036zm-25.145 102.306v-8.918c0-1.627-.529-3.211-1.508-4.511l-27.424-36.428 26.398-11.582 35.86 99.801zm53.925 51.333-42.69-118.811.408-.179 30.112 20.492c3.527 2.4 7.57 3.601 11.615 3.601 4.034 0 8.069-1.194 11.59-3.583l30.241-20.512 1.278.561zm55.433-64.762c-.979 1.3-1.508 2.884-1.508 4.511v8.918l-33.326 38.363 35.723-99.422 11.305 4.96c-.357 3.887-.55 7.821-.55 11.8 0 4.844.28 9.624.808 14.329z"/><path d="m373.856 348.003c-19.451 0-35.276 15.825-35.276 35.276s15.825 35.275 35.276 35.275 35.275-15.824 35.275-35.275-15.824-35.276-35.275-35.276zm0 55.552c-11.18 0-20.276-9.096-20.276-20.275 0-11.181 9.096-20.276 20.276-20.276s20.275 9.096 20.275 20.276c.001 11.179-9.095 20.275-20.275 20.275z"/><path d="m274.622 375.557c-3.33 4.619-3.33 10.825 0 15.444 10.973 15.215 50.56 64.857 99.234 64.857 48.676 0 88.261-49.643 99.234-64.856 3.332-4.619 3.332-10.827 0-15.445-10.973-15.215-50.558-64.857-99.234-64.857-48.674-.001-88.261 49.642-99.234 64.857zm99.234 65.301c-31.75 0-57.58-25.83-57.58-57.579 0-31.75 25.83-57.58 57.58-57.58 31.749 0 57.579 25.83 57.579 57.58.001 31.749-25.83 57.579-57.579 57.579zm-86.302-57.579c2.815-3.826 8.543-11.225 16.4-19.475-1.731 6.202-2.677 12.728-2.677 19.475 0 6.74.936 13.264 2.665 19.459-7.85-8.243-13.575-15.635-16.388-19.459zm172.604-.001c-2.813 3.823-8.534 11.213-16.381 19.455 1.73-6.193 2.658-12.716 2.658-19.454 0-6.743-.936-13.269-2.669-19.466 7.852 8.246 13.579 15.641 16.392 19.465z"/></g></g></svg>