<svg id="Draft" height="512" viewBox="0 0 500 500" width="512" xmlns="http://www.w3.org/2000/svg"><g><g><path d="m354.65 64.23v98.73c-6.34-2.03-12.29-.57-12.29-.57h-.22v-20.98c0-11.34-11.56-18.63-16.65-19.36 0 0-18.98 17.54-74.78 17.54s-80.3-16.05-80.3-16.05c-8.8.11-14.43 11.86-14.43 17.87v20.98h-.62s-5.69-1.41-11.88.43l-.08-.95c.05-31.86.11-68.3.16-100.17.03-6.39.3-13.46 4.79-17.98 3.93-3.95 10.02-4.79 15.57-4.25 5.55.51 10.96 2.17 16.51 2.33 10.37.32 20.36-9.48 30.73-9.18 6.5.22 12.72 2.44 19.14 3.6 8.23 1.49 16.81 1.16 24.91-.95 9.31-2.44 18.84-7.2 28.05-4.41 4.33 1.33 12.89 9.12 17.14 10.75 12.35 4.71 21.25-7.8 34.38-6.15 19.6 2.46 19.6 13.05 19.87 28.75z" fill="#898484"/><path d="m400.4 387.78-.35.08c-11.52-7.05-58.71-24.81-60.72-23.28-.5.37-2.36 7.2-2.36 7.2-4.79 13.29-13.92 25.61-25.61 35.65-17.03 14.62-39.55 24.39-62.4 25.2-49.14 1.73-90.04-27.4-91.37-65.06 0-.14-.03-.27-.03-.43l-.19-.65c-3.63 1.11-7.55 2.06-11.8 2.84-1.87.35-3.82.73-5.77 1.16-42.21 9.07-100.71 35.9-112.68 98.92h432.73c-11.07-48.73-27.07-62.78-59.45-81.65z" fill="#ffe780"/><path d="m336.21 364.17c-9.34.7-18.92-4.2-24.01-13.16l-.08.05c-7.61-7.07-11.26-15-12.45-20.63-.27-1.22-.41-2.3-.46-3.28-.49-9.37 0-16 0-16l-.05-.14c-12.16 5.55-27.72 9.07-47.65 9.07h-4.87c-19.95 0-35.55-3.55-47.68-9.12l-.08.19v16c0 1.35-.22 3.03-.73 4.95 0 0 0 .03-.03 0-2.68 9.96-13.29 26.15-40.74 34.38l.19.65c0 .16.03.3.03.43 1.33 37.66 42.23 66.79 91.37 65.06 22.85-.81 45.37-10.59 62.4-25.2 11.7-10.04 20.82-22.36 25.61-35.65-.49-4.85-.76-7.61-.76-7.61z" fill="#ffdbd0"/><path d="m262.14 256.13c2.22 8.42-.79 16.51-6.66 18.06-5.9 1.54-12.48-4.03-14.67-12.45-2.22-8.42.79-16.49 6.69-18.03 5.87-1.54 12.45 4.01 14.65 12.43z" fill="#bf5768"/><path d="m342.14 222.53h.87c8.74-.46 26.69-4.68 26.69-31.46 0-7.2-1.14-12.67-2.95-16.81-2.92-6.66-7.61-9.85-12.1-11.29-6.33-2.03-12.29-.57-12.29-.57h-.22v-20.98c0-11.34-11.56-18.63-16.65-19.36 0 0-18.98 17.54-74.78 17.54s-80.3-16.05-80.3-16.05c-8.8.11-14.43 11.86-14.43 17.87v20.98h-.62s-5.69-1.41-11.89.43c-7.36 2.19-15.46 9.02-15.46 28.24 0 26.77 17.95 31 26.69 31.46h1.27v19.57s-1.95 48.32 42.96 68.87c12.13 5.58 27.72 9.12 47.68 9.12h4.87c19.93 0 35.49-3.52 47.65-9.07 13.78-6.33 23.15-15.24 29.51-24.58v-.08c5.98-.62 11.56-3.14 16-7.04 4.52-4.01 7.85-9.48 9.15-15.89 2.33-11.56-2.63-22.88-11.72-29.21l.05-.08v-11.61zm-101.33 39.2c-2.22-8.42.79-16.49 6.69-18.03 5.87-1.54 12.45 4.01 14.65 12.43 2.22 8.42-.79 16.51-6.66 18.06-5.9 1.54-12.48-4.03-14.67-12.45z" fill="#ffdbd0"/></g><g><g fill="#6a6565"><path d="m177.37 183.77c-.86 0-1.57-.67-1.63-1.53-.05-.9.63-1.67 1.53-1.72 36.23-2.12 42.8-23.57 43.06-24.48.25-.86 1.14-1.37 2.01-1.12.86.25 1.37 1.14 1.13 2.01-.28 1-7.34 24.59-46.01 26.85-.03 0-.07 0-.1 0z"/><path d="m321.46 183.77s-.06 0-.1 0c-38.67-2.26-45.73-25.85-46.01-26.85-.24-.87.26-1.77 1.13-2.01.87-.25 1.77.26 2.01 1.13.27.92 6.84 22.36 43.06 24.48.9.05 1.58.82 1.53 1.72-.05.87-.77 1.53-1.63 1.53z"/><path d="m190.18 197.68c-.63 0-1.24-.37-1.5-.99-.35-.83.03-1.79.86-2.14 12.39-5.27 24.94-5.27 37.31 0 .83.35 1.21 1.31.86 2.14s-1.32 1.21-2.14.86c-11.52-4.92-23.21-4.91-34.76 0-.21.09-.42.13-.64.13z"/><path d="m308.65 197.68c-.21 0-.43-.04-.64-.13-11.53-4.91-23.23-4.91-34.76 0-.83.35-1.78-.03-2.14-.86-.35-.83.03-1.79.86-2.14 12.38-5.27 24.93-5.27 37.31 0 .83.35 1.21 1.31.86 2.14-.26.62-.87.99-1.5.99z"/></g><path d="m242.73 452.52c-57.5 0-104.29-36.01-104.29-80.28v-.49h3.26v.49c0 42.47 45.32 77.02 101.03 77.02 25.9 0 50.54-7.49 69.38-21.08 11.48-8.25 20.38-18.61 25.74-29.97l2.95 1.39c-5.6 11.86-14.86 22.65-26.78 31.22-19.39 13.99-44.7 21.69-71.29 21.69z" fill="#e8ae4e"/></g><path d="m342.14 222.53h.87c8.74-.46 26.69-4.68 26.69-31.46 0-7.2-1.14-12.67-2.95-16.81-2.92-6.66-7.61-9.85-12.1-11.29-6.33-2.03-12.29-.57-12.29-.57h-.22v-20.98c0-11.34-11.56-18.63-16.65-19.36 0 0-18.98 17.54-74.78 17.54s-80.3-16.05-80.3-16.05c-8.8.11-14.43 11.86-14.43 17.87v20.98h-.62s-5.69-1.41-11.89.43c-7.36 2.19-15.46 9.02-15.46 28.24 0 26.77 17.95 31 26.69 31.46h1.27v19.57s-1.95 48.32 42.96 68.87c12.13 5.58 27.72 9.12 47.68 9.12h4.87c19.93 0 35.49-3.52 47.65-9.07 13.78-6.33 23.15-15.24 29.51-24.58v-.08c5.98-.62 11.56-3.14 16-7.04 4.52-4.01 7.85-9.48 9.15-15.89 2.33-11.56-2.63-22.88-11.72-29.21l.05-.08v-11.61zm-17 45.05c-3.57 0-6.88-1.27-9.42-3.41-10.29 17.11-31.57 31.46-64.11 31.46-47.92 0-81.19-29-81.19-53.52v-97.87s22.06 7.66 51.63 10.86c7.77.84 16.08 1.38 24.66 1.38 10.5 0 20.63-.87 29.89-2.14 26.91-3.76 46.43-11.07 46.43-11.07v95.05c.7-.11 1.41-.16 2.11-.16 8.15 0 14.73 6.58 14.73 14.7s-6.58 14.73-14.73 14.73z" fill="#efa7a0"/><path d="m339.32 364.58c-9.34.7-27.13-13.56-27.13-13.56l-.08.05c-7.61-7.07-11.26-15-12.45-20.63-.27-1.22-.41-2.3-.46-3.28-.49-9.37 0-16 0-16l-.05-.14c-12.16 5.55-27.72 9.07-47.65 9.07h-4.87c-19.95 0-35.55-3.55-47.68-9.12l-.08.19v16c0 1.35-.22 3.03-.73 4.95 26.69 16.16 54.28 19.19 82.84 7.77-.3 4.55-.6 9.12-.89 13.67-.14 2.14-.27 4.28.11 6.36.46 2.36 1.6 4.55 2.84 6.61 6.15 10.04 15.78 17.89 26.86 21.87l1.46 19.03c11.7-10.04 20.82-22.36 25.61-35.65 0 0 1.96-6.47 2.36-7.2-.46-.32 0 0 0 0z" fill="#efa7a0"/><path d="m387.92 323.62c1.49-6.85 8.47-30.16 10.31-36.93 3.36-12.53 3.28-21.28 3.87-32.73.68-12.99-2.46-28.37-5.6-42.13-.89-3.9-4.03-10.88-9.53-10.75-.92.03-1.87.24-2.92.7-1.6.7-2.95 2.17-4.09 3.93-1.73 2.63-2.95 5.96-3.63 8.47-1.16 4.22-.08 12.21-.24 16.57-.43 13.43.27 13.32-2.03 26.59-1.54 8.88-8.66 22.69-16.57 30-4.2 3.9-8.37 7.8-12.72 11.4-5.71 4.82-11.7 9.2-18.3 12.67-4.39 2.3-19.6 9.64-17.73 28.37.41 4.22 1.65 7.99 3.47 11.23 5.09 8.96 14.67 13.86 24.01 13.16 0 0 .27 2.76.76 7.61h.03c.62 6.12 7.42 72.61 9.99 97.65h72.8c-6.15-22.69-32.54-142.7-31.86-145.81z" fill="#ffdbd0"/><path d="m336.99 371.78h-.03c-.49-4.85-.76-7.61-.76-7.61-9.34.7-18.92-4.2-24.01-13.16-1.81-3.25-3.06-7.01-3.47-11.24-1.87-18.73 13.35-26.07 17.73-28.37 6.61-3.47 12.59-7.85 18.3-12.67 4.36-3.6 8.53-7.5 12.72-11.4 7.91-7.31 15.03-21.12 16.57-30 2.3-13.27 1.6-13.16 2.03-26.59.16-4.36-.92-12.35.24-16.57.68-2.52 1.9-5.85 3.63-8.47l.19.11c3.71 14.43 6.36 29.27 5.74 44.13-1.25 28.89-15 56.2-33.79 78.19-2.06 2.44-4.25 4.9-5.12 7.96-1.16 4.2.41 8.77 3.09 12.21s6.34 5.93 9.94 8.37l17.19 112.76h-30.21c-2.57-25.04-5.2-50.82-7.23-70.58-1.16-11.51-2.14-20.95-2.76-27.07z" fill="#efa7a0"/><path d="m339.75 398.85c-1.16-11.51-2.14-20.95-2.76-27.07h-.03c-4.79 13.29-13.92 25.61-25.61 35.65l1.71 22.06 3.06 39.93h30.86c-2.57-25.04-5.2-50.82-7.23-70.58z" fill="#e8ae4e"/></g><path d="m419.98 246.07-3.2-.63c1.58-7.96 8.11-13.54 15.66-13.26 1.8.07 3.56.44 5.26.81 1.37.29 2.66.57 3.94.69 7.73.71 14.84-5.33 16.2-13.76l3.22.52c-1.63 10.12-10.31 17.37-19.72 16.49-1.47-.14-2.92-.45-4.32-.75-1.64-.35-3.18-.68-4.7-.74-5.85-.19-11.08 4.26-12.34 10.63z" fill="#c7c2c2"/><path d="m459.27 287.04c-3.83 0-7.59-1.19-10.69-3.63-1.16-.92-2.2-1.96-3.22-2.97-1.18-1.18-2.29-2.3-3.53-3.17-4.74-3.33-11.68-2.38-16.14 2.2l-2.33-2.28c5.66-5.81 14.22-6.9 20.35-2.59 1.47 1.03 2.74 2.3 3.96 3.54.99.99 1.92 1.92 2.93 2.72 6.08 4.79 15.34 3.6 21.08-2.72l2.41 2.19c-4.01 4.42-9.48 6.72-14.82 6.72z" fill="#c7c2c2"/><path d="m450.98 340.99c-8.43 0-15.98-5.17-18.15-12.99-.4-1.43-.62-2.89-.84-4.31-.25-1.65-.5-3.22-.98-4.65-1.89-5.58-7.92-8.83-14.32-7.74l-.55-3.21c8.01-1.38 15.55 2.8 17.96 9.91.58 1.7.85 3.48 1.11 5.2.21 1.38.42 2.69.76 3.93 2.08 7.48 10.26 11.97 18.61 10.23l.67 3.19c-1.43.3-2.86.44-4.27.44z" fill="#c7c2c2"/><path d="m231.65 79.13c-5.8 0-11-2.57-16.03-5.06-2.25-1.12-4.58-2.27-6.89-3.14-9.26-3.51-22.13-2.6-28.79 5.94-.55.71-1.58.83-2.29.28s-.84-1.58-.28-2.29c7.63-9.78 22.13-10.92 32.52-6.99 2.46.93 4.86 2.12 7.18 3.27 5.01 2.48 9.8 4.81 14.9 4.72 5.73-.11 11.04-3.33 16.18-6.45.83-.5 1.65-1 2.47-1.49 8.71-5.14 15.79-6.45 21.65-3.98 3.03 1.27 5.37 3.71 7.63 6.07 2.71 2.82 5.26 5.48 8.52 5.55 8.07.17 13.32-2.28 18.85-4.86 5.13-2.39 10.43-4.86 17.88-4.86.9 0 1.63.73 1.63 1.63s-.73 1.63-1.63 1.63c-6.73 0-11.48 2.21-16.5 4.56-5.62 2.62-11.43 5.31-20.28 5.17-4.61-.09-7.76-3.37-10.81-6.55-2.12-2.22-4.13-4.31-6.54-5.32-4.85-2.04-10.98-.8-18.73 3.79-.81.48-1.63.97-2.44 1.47-5.51 3.34-11.2 6.79-17.81 6.92-.13 0-.25 0-.38 0z" fill="#8b9194"/><path d="m231.23 106.81c-6.33 0-12.38-2.14-18.26-4.22-4.64-1.64-9.43-3.33-14.22-3.9-7.67-.92-15.69 1.1-22.01 5.54-.74.52-1.75.34-2.27-.4s-.34-1.75.4-2.27c6.97-4.89 15.82-7.11 24.27-6.11 5.15.61 10.12 2.37 14.93 4.07 6.7 2.37 13.02 4.6 19.64 3.9 4.89-.52 9.69-2.69 14.34-4.8 6.31-2.86 12.83-5.83 19.94-4.89 4.03.53 7.68 2.27 11.2 3.95.93.44 1.85.88 2.78 1.3 12.6 5.67 30.03 6.82 40.57-3.38.65-.62 1.68-.61 2.3.04.63.65.61 1.68-.04 2.3-11.64 11.27-30.57 10.13-44.17 4.01-.95-.43-1.9-.88-2.85-1.34-3.44-1.65-6.7-3.2-10.22-3.66-6.17-.8-12.01 1.83-18.17 4.63-4.88 2.21-9.93 4.5-15.34 5.07-.94.1-1.87.15-2.8.15z" fill="#8b9194"/><g fill="#564b57"><path d="m463.03 468.71c-11.28-49.66-27.84-64.34-60.18-83.27-8.05-36.49-11.99-58.41-11.75-61.13.98-4.49 4.4-16.32 7.15-25.84 1.35-4.65 2.51-8.69 3.12-10.94 2.96-11.05 3.33-19.18 3.75-28.58.07-1.56.14-3.16.23-4.82.71-13.63-2.56-29.35-5.68-43.01-.95-4.22-3.68-9.95-8.23-12.24-2.7-1.36-5.72-1.38-8.73-.06-5.75 2.58-8.58 11.02-9.52 14.51-.9 3.28-.68 7.99-.49 12.14.09 1.96.18 3.82.13 5.19-.11 3.38-.15 5.91-.18 8.01-.09 6.13-.12 8.43-1.81 18.12-1.38 7.92-7.96 21.12-15.57 28.16l-.19.17c-9.3 8.63-18.93 17.55-30.14 23.4l-.4.21c-12.81 6.67-19.25 16.08-19.22 27.98-1.97-4.04-2.77-7.56-2.87-9.71-.33-6.35-.2-11.44-.09-13.93 11.58-5.67 21.05-13.63 28.18-23.68 13.25-2.03 23.78-12.01 26.46-25.3 2.4-11.9-2.16-24.05-11.61-31.44v-7.04c9.76-1.09 27.56-6.87 27.56-34.53 0-19.2-7.72-27.12-15.05-30.33v-97c-.27-15.4-.5-28.71-22.72-31.5-6.93-.88-12.77 1.67-17.92 3.91-5.52 2.41-10.3 4.48-15.71 2.42-1.61-.61-4.61-2.79-7.26-4.7-3.74-2.71-7.28-5.26-10.09-6.12-8.03-2.43-15.87.06-23.45 2.47-2.2.7-4.28 1.36-6.36 1.91-7.62 1.99-15.75 2.3-23.5.9-2.14-.39-4.33-.92-6.45-1.43-4.22-1.02-8.59-2.07-13.17-2.22-5.97-.22-11.47 2.4-16.81 4.89-4.88 2.27-9.47 4.46-13.91 4.28-2.89-.08-5.78-.62-8.85-1.18-2.41-.44-4.91-.9-7.45-1.13-7.67-.75-14.12 1.1-18.19 5.2-5.68 5.71-5.72 14.47-5.74 20.27l-.16 98.87c-7.5 3.14-15.38 11.05-15.38 30.49 0 28.04 18.3 33.6 27.97 34.57v16.33c-.02.5-1.42 49.27 42.88 70.99v14.2c0 6.35-7.2 26.63-39.2 36.22-3.5 1.07-7.35 2-11.45 2.76-1.9.36-3.89.75-5.85 1.18-30.07 6.46-101.48 29.29-115.2 101.5-.34 1.77.83 3.47 2.59 3.81.21.04.41.06.61.06 1.54 0 2.9-1.09 3.2-2.65 12.47-65.68 76.02-88.35 106.56-95.53 1.56 44.12 48.43 79.64 105.84 79.64 26.92 0 52.58-7.82 72.24-22 9.23-6.63 16.88-14.58 22.54-23.32l6.24 60.94s.01.14.02.18c.01.17.03.34.05.51.23 1.62 1.62 2.77 3.21 2.77.16 0 .32-.01.47-.03 1.78-.25 3.02-1.93 2.76-3.72-.01-.17-.03-.34-.04-.39l-7.23-70.57c-.76-7.49-1.44-14.11-1.99-19.51l-.78-7.58c-.51-4.82-.78-7.57-.78-7.58-.17-1.76-1.76-3.07-3.49-2.93-8.37.61-16.6-3.89-20.92-11.5-1.69-3.03-2.72-6.38-3.07-9.97-1.6-16 10.89-22.5 15.59-24.95l.41-.21c11.98-6.26 21.93-15.48 31.55-24.39l.18-.17c8.86-8.19 16.02-22.9 17.57-31.83 1.77-10.2 1.81-12.82 1.9-19.14.03-2.07.07-4.56.18-7.88.06-1.63-.03-3.61-.13-5.72-.16-3.49-.37-7.82.26-10.12 1.38-5.11 3.81-9.34 5.88-10.27 1.56-.69 2.51-.4 3.15-.08 2.22 1.12 4.13 4.88 4.81 7.87 3.02 13.24 6.19 28.44 5.53 41.23-.09 1.67-.16 3.29-.23 4.87-.41 9.02-.76 16.82-3.53 27.18-.6 2.22-1.76 6.22-3.09 10.83-2.78 9.61-6.24 21.56-7.26 26.26-1.03 4.76 7.16 43.17 12.13 65.64 6.66 30.04 14.04 60.54 19.74 81.61.28 1.51 1.61 2.65 3.2 2.65 1.8 0 3.26-1.46 3.26-3.26 0-.23-.03-.48-.08-.73-.02-.09-.04-.18-.06-.26-5.24-19.35-11.91-46.73-18.13-74.4 27.83 16.88 41.71 31.28 51.86 75.93v.02c.27 1.53 1.6 2.69 3.21 2.69 1.8 0 3.26-1.46 3.26-3.26 0-.23-.03-.48-.08-.73 0-.04-.02-.09-.03-.13zm-109.38-302.64c8.49 2.72 12.79 11.13 12.79 25 0 21.3-12.2 26.79-21.04 27.97v-53.79c2.01-.17 5.1-.18 8.25.83zm-222.37 25c0-14.07 4.42-22.52 13.13-25.11 3.26-.97 6.41-.88 8.32-.68v53.81c-8.87-1.06-21.45-6.38-21.45-28.01zm21.45-49.65v17.31c-1.63-.13-3.74-.17-6.06.13l.16-97.13c.03-6.26.34-12.17 3.85-15.69 3.6-3.62 9.65-3.62 12.95-3.3 2.26.21 4.51.62 6.89 1.06 3.17.58 6.44 1.18 9.83 1.28 6 .19 11.51-2.4 16.86-4.89 4.87-2.27 9.41-4.4 13.86-4.29 3.91.13 7.77 1.06 11.85 2.05 2.21.53 4.5 1.08 6.82 1.51 8.68 1.57 17.78 1.23 26.31-1 2.25-.59 4.51-1.31 6.69-2 6.94-2.21 13.49-4.29 19.58-2.45 1.77.54 5.32 3.11 8.17 5.17 3.26 2.36 6.35 4.59 8.76 5.51 7.9 3.02 14.67.07 20.63-2.53 4.81-2.09 9.35-4.07 14.51-3.42 16.62 2.09 16.75 9.79 17.01 25.14v95.05c-2.26-.31-4.33-.31-5.98-.2v-17.29c0-12.99-12.66-21.61-19.45-22.58-.96-.15-1.94.17-2.66.82-.18.17-19.09 16.69-72.57 16.69s-78.28-15.37-78.51-15.52c-.54-.35-1.19-.51-1.83-.53-10.95.14-17.65 13.76-17.65 21.13zm6.52 100.68v-100.68c0-4.61 4.42-13.67 10.37-14.54 5.18 3.02 30.43 15.99 81.1 15.99s70.17-13.21 75.58-17.26c4.51 1.48 12.59 7.49 12.59 15.82v87.23c-2.2-1.01-4.53-1.79-7-2.29-.19-.04-.53-.11-.98-.11-1.8 0-3.26 1.46-3.26 3.26s1.43 3.23 3.2 3.26c-.11 0-.2 0-.21-.01 3.52.71 6.74 2.1 9.59 4.14 8.31 5.79 12.39 15.95 10.39 25.89-2.21 11-11.17 19.17-22.29 20.33-2.6.27-5.2.15-7.78-.37-1.08-.2-2.2-.51-3.35-.9-1.7-.59-3.56.31-4.15 2.01s.31 3.56 2.01 4.15c1.45.5 2.89.89 4.24 1.14.95.19 1.91.33 2.87.43-6.45 7.77-14.61 13.99-24.38 18.48-12.75 5.82-28.33 8.77-46.29 8.77h-4.87c-18 0-33.58-2.97-46.32-8.83-42.32-19.36-41.13-63.9-41.06-65.91zm175.72 141.89c.41 4.04.88 8.6 1.38 13.57-5.25 11.09-13.96 21.22-25.19 29.29-18.56 13.4-42.86 20.77-68.43 20.77-54.43 0-98.76-33.36-99.37-74.54.95-.19 1.89-.37 2.8-.54 2.92-.54 5.71-1.17 8.37-1.86 1.59 18.09 11.76 34.64 28.92 46.86 16.79 11.96 38.42 18.43 61.32 18.43 1.43 0 2.87-.02 4.3-.07 22.63-.8 46.11-10.28 64.41-25.99 9.01-7.74 16.29-16.55 21.49-25.92zm-1.7-16.52c.11 1.04.24 2.35.4 3.87-4.57 12.18-13 23.79-24.44 33.62-17.2 14.77-39.21 23.67-60.39 24.42-23.06.83-44.93-5.28-61.61-17.15-16.02-11.41-25.31-26.83-26.31-43.44 33.7-11.11 41.2-33.67 41.2-41.62v-11.32c12.68 4.98 27.61 7.51 44.5 7.51h4.87c16.76 0 31.61-2.49 44.25-7.38-.05 2.86-.04 6.77.19 11.35.32 6.37 4.15 17.01 13.88 26.06 5.11 8.4 13.99 13.69 23.44 14.08z"/><path d="m225.05 157.35c.48-1.73-.52-3.51-2.24-4-1.73-.5-3.52.51-4.03 2.22-.26.87-6.66 21.27-41.59 23.31-1.8.11-3.17 1.65-3.06 3.45.1 1.73 1.54 3.07 3.25 3.07h.19c39.82-2.33 47.19-26.99 47.48-28.04z"/><path d="m321.26 185.39h.19c1.71 0 3.15-1.34 3.25-3.07.11-1.8-1.27-3.34-3.06-3.45-34.92-2.04-41.33-22.42-41.59-23.31-.5-1.72-2.28-2.72-4.01-2.24-1.73.49-2.74 2.29-2.26 4.02.29 1.05 7.66 25.71 47.48 28.04z"/><path d="m224.93 199.05c1.66.71 3.57-.06 4.28-1.72s-.06-3.57-1.72-4.28c-12.79-5.45-25.77-5.46-38.59 0-1.66.71-2.43 2.62-1.72 4.28.53 1.24 1.73 1.98 3 1.98.42 0 .86-.08 1.27-.26 11.28-4.8 22.23-4.8 33.48 0z"/><path d="m273.89 199.05c11.27-4.79 22.22-4.79 33.48 0 .42.18.85.26 1.27.26 1.27 0 2.47-.74 3-1.98.71-1.66-.07-3.57-1.72-4.28-12.8-5.45-25.78-5.45-38.59 0-1.66.71-2.43 2.62-1.72 4.28s2.62 2.43 4.28 1.72z"/><path d="m246.98 275.84c2.11 1.24 4.31 1.86 6.48 1.86.96 0 1.91-.12 2.85-.37 3.05-.8 5.6-2.83 7.37-5.87 2.57-4.41 3.16-10.3 1.61-16.17-1.53-5.86-4.92-10.69-9.31-13.26-3.04-1.78-6.26-2.29-9.31-1.49-3.07.8-5.63 2.83-7.41 5.88-2.57 4.39-3.15 10.28-1.61 16.13 1.53 5.87 4.93 10.71 9.33 13.29zm-2.09-26.13c.62-1.06 1.71-2.41 3.43-2.86.4-.11.79-.15 1.17-.15 1.25 0 2.39.49 3.19.96 2.87 1.68 5.22 5.15 6.3 9.29 1.09 4.16.74 8.35-.94 11.24-.61 1.05-1.7 2.4-3.39 2.84-1.72.45-3.33-.2-4.38-.81-2.87-1.68-5.23-5.16-6.32-9.32-1.09-4.14-.74-8.32.93-11.19z"/><path d="m176.64 78.45c1.42 1.11 3.47.85 4.57-.57 6.19-7.93 18.22-8.74 26.92-5.43 2.23.85 4.42 1.93 6.74 3.08 5.2 2.57 10.58 5.23 16.76 5.23h.43c7.06-.14 12.95-3.72 18.65-7.19.8-.49 1.6-.97 2.38-1.43 7.32-4.29 12.98-5.49 17.3-3.68 2.1.88 4 2.86 6.01 4.95 3.12 3.25 6.66 6.94 11.94 7.05 9.25.17 15.48-2.75 21-5.32 4.85-2.26 9.44-4.4 15.8-4.4 1.8 0 3.26-1.46 3.26-3.26s-1.46-3.26-3.26-3.26c-7.81 0-13.27 2.55-18.55 5.01-5.35 2.5-10.45 4.87-18.12 4.71-2.57-.05-4.79-2.36-7.36-5.04-2.27-2.37-4.85-5.06-8.2-6.45-6.34-2.67-13.89-1.34-23.13 4.07-.82.48-1.63.98-2.46 1.48-5.18 3.16-10.08 6.14-15.38 6.24-.1 0-.19 0-.29 0-4.66 0-9.14-2.21-13.87-4.56-2.36-1.17-4.79-2.37-7.32-3.33-10.93-4.16-26.25-2.92-34.38 7.51-1.11 1.42-.85 3.47.57 4.57z"/><path d="m177.68 105.56c5.99-4.21 13.59-6.13 20.86-5.25 4.62.54 9.12 2.14 13.9 3.82 6.01 2.12 12.19 4.3 18.75 4.3.99 0 1.99-.05 3-.16 5.68-.6 10.86-2.94 15.86-5.21 5.94-2.7 11.55-5.24 17.28-4.49 3.26.42 6.38 1.91 9.68 3.49.98.47 1.95.93 2.93 1.37 14.1 6.34 33.78 7.46 45.97-4.34 1.29-1.25 1.33-3.32.08-4.61s-3.32-1.33-4.61-.08c-10 9.67-26.67 8.52-38.77 3.08-.93-.42-1.86-.86-2.8-1.31-3.62-1.73-7.37-3.51-11.65-4.07-7.56-.98-14.3 2.06-20.81 5.02-4.74 2.15-9.21 4.18-13.85 4.67-6.23.65-12.38-1.51-18.9-3.81-4.9-1.73-9.96-3.52-15.29-4.14-8.84-1.07-18.09 1.26-25.39 6.39-1.47 1.03-1.83 3.07-.79 4.54 1.03 1.47 3.07 1.83 4.54.79z"/><path d="m431.94 237.06h.33c1.37.05 2.85.37 4.41.7 1.45.31 2.94.63 4.51.78 10.25.97 19.71-6.89 21.48-17.85.29-1.78-.92-3.45-2.7-3.74s-3.45.92-3.74 2.7c-1.22 7.59-7.58 13.02-14.44 12.4-1.18-.11-2.43-.38-3.75-.66-1.77-.38-3.6-.77-5.54-.84-8.26-.25-15.58 5.82-17.32 14.57-.35 1.77.8 3.48 2.56 3.83.21.04.43.06.64.06 1.52 0 2.89-1.07 3.19-2.62 1.07-5.38 5.48-9.33 10.35-9.33z"/><path d="m470.47 277.03c-5.17 5.69-13.46 6.81-18.87 2.54-.93-.74-1.83-1.63-2.78-2.59-1.28-1.28-2.6-2.6-4.18-3.72-6.79-4.77-16.23-3.6-22.46 2.79-1.26 1.29-1.23 3.35.06 4.61s3.35 1.23 4.61-.06c3.92-4.01 9.95-4.87 14.04-2 1.12.79 2.19 1.85 3.31 2.99 1.04 1.05 2.12 2.13 3.36 3.1 3.4 2.68 7.51 3.98 11.7 3.98 5.79 0 11.7-2.48 16.03-7.25 1.21-1.33 1.11-3.4-.22-4.6-1.34-1.21-3.4-1.11-4.6.22z"/><path d="m416.96 312.91c5.52-.96 10.9 1.92 12.5 6.65.44 1.3.67 2.79.91 4.38.23 1.46.46 2.98.88 4.5 2.37 8.54 10.58 14.18 19.73 14.18 1.51 0 3.05-.15 4.6-.48 1.76-.37 2.89-2.09 2.53-3.86-.37-1.76-2.09-2.89-3.86-2.53-7.52 1.57-14.86-2.42-16.71-9.07-.32-1.15-.51-2.41-.72-3.74-.28-1.79-.56-3.64-1.18-5.48-2.67-7.87-10.98-12.49-19.78-10.99-1.77.3-2.97 1.99-2.66 3.76.3 1.77 1.98 2.97 3.76 2.66z"/></g></svg>