<?xml version="1.0"?>
<svg xmlns="http://www.w3.org/2000/svg" width="128" height="128" viewBox="0 0 128 128"><g><g><path d="M70.949,88.277H29.142A13.435,13.435,0,0,1,15.967,73.542l3.121-37.1C20.474,19.96,33.92,7.3,50.046,7.3h0C66.171,7.3,79.617,19.96,81,36.443l3.12,37.1A13.434,13.434,0,0,1,70.949,88.277Z" fill="#3c4969"/><path d="M88.28,120.7H11.81a4.512,4.512,0,0,1-4.41-5.44l2.8-13.2A20.8,20.8,0,0,1,30.55,85.58H69.54a20.8,20.8,0,0,1,20.35,16.48l2.8,13.2A4.507,4.507,0,0,1,88.28,120.7Z" fill="#fbbe4c"/><path d="M64.039,87.917l-13.993,4.27-13.993-4.27s4.966-7.234,4.966-14.359H59.073C59.073,80.683,64.039,87.917,64.039,87.917Z" fill="#ffb7ab"/><path d="M72.526,37.223V55.785c0,11.423-10.06,20.689-22.48,20.689s-22.48-9.266-22.48-20.689V37.223c10.133-2.51,17.651-7.345,22.48-14.571C54.875,29.878,62.392,34.713,72.526,37.223Z" fill="#ffd0c8"/><g><path d="M50.046,92.03,33.518,83.706a1.762,1.762,0,0,0-2.405.861l-2.9,6.558a1.765,1.765,0,0,0,.164,1.719l7.348,10.577a1.762,1.762,0,0,0,2.694.241Z" fill="#cc8a0f"/><path d="M50.046,92.03l16.528-8.324a1.761,1.761,0,0,1,2.4.861l2.9,6.558a1.762,1.762,0,0,1-.164,1.719l-7.347,10.577a1.762,1.762,0,0,1-2.694.241Z" fill="#cc8a0f"/></g></g><circle cx="94.402" cy="94.402" r="26.295" fill="#8be08e"/></g><g><path d="M30.01,119.2H25.03a1.5,1.5,0,0,0,0,3h4.98a1.5,1.5,0,1,0,0-3Z"/><path d="M41.017,44.2a1.5,1.5,0,0,0-1.5,1.5v2.763a1.5,1.5,0,0,0,3,0V45.7A1.5,1.5,0,0,0,41.017,44.2Z"/><path d="M59.075,44.2a1.5,1.5,0,0,0-1.5,1.5v2.763a1.5,1.5,0,0,0,3,0V45.7A1.5,1.5,0,0,0,59.075,44.2Z"/><path d="M52.926,61.757a4.083,4.083,0,0,1-5.76,0A1.5,1.5,0,0,0,45.3,64.105a7.009,7.009,0,0,0,9.5,0,1.5,1.5,0,0,0-1.868-2.348Z"/><path d="M94.4,66.606a27.654,27.654,0,0,0-9.226,1.581L82.5,36.315A33.623,33.623,0,0,0,72.079,14.6,32.03,32.03,0,0,0,50.05,5.8c-17.045,0-31,13.118-32.455,30.514l-3.119,37.1a15.1,15.1,0,0,0,5.675,13.229A22.174,22.174,0,0,0,8.733,101.749l-2.8,13.2A6.011,6.011,0,0,0,11.81,122.2h4.11a1.5,1.5,0,1,0,0-3H11.81a3.014,3.014,0,0,1-2.943-3.629l2.8-13.2A19.211,19.211,0,0,1,23.73,88.317q.046-.013.09-.03A19.293,19.293,0,0,1,28.3,87.228l-1.456,3.291a3.283,3.283,0,0,0,.3,3.181l7.347,10.577a3.254,3.254,0,0,0,2.388,1.389c.1.008.2.013.293.013a3.254,3.254,0,0,0,2.3-.956l9.069-9.071V119.2H39.12a1.5,1.5,0,1,0,0,3H62.06a1.5,1.5,0,0,0,0-3H51.546V95.647l9.067,9.067a3.231,3.231,0,0,0,2.3.963c.092,0,.184,0,.276-.011a3.271,3.271,0,0,0,2.409-1.39l1.927-2.774a27.908,27.908,0,0,0,14.343,17.7H71.18a1.5,1.5,0,0,0,0,3h17.1a6.02,6.02,0,0,0,1.931-.32A27.8,27.8,0,1,0,94.4,66.606ZM23.452,85.255a12.057,12.057,0,0,1-5.987-11.589l3.119-37.1C21.911,20.736,34.578,8.8,50.05,8.8a29.036,29.036,0,0,1,19.971,7.982,30.618,30.618,0,0,1,9.484,19.784L82.268,69.4A27.966,27.966,0,0,0,69.234,82.622a3.212,3.212,0,0,0-.774-.417,3.265,3.265,0,0,0-2.565.166l-2.557,1.287a26.616,26.616,0,0,1-2.6-8.018C68.605,72,74.026,64.468,74.026,55.785V37.223a1.5,1.5,0,0,0-1.139-1.456c-9.76-2.418-17.025-7.111-21.594-13.949a1.5,1.5,0,0,0-2.494,0c-4.57,6.838-11.835,11.531-21.594,13.949a1.5,1.5,0,0,0-1.139,1.456V55.785c0,8.682,5.42,16.212,13.292,19.855a26.574,26.574,0,0,1-2.6,8.016l-2.562-1.29a3.261,3.261,0,0,0-4.45,1.593l-.071.159A22.285,22.285,0,0,0,23.452,85.255Zm26.6,5.1L39.433,85.005a30.492,30.492,0,0,0,2.793-8.249,25.709,25.709,0,0,0,15.639,0,30.566,30.566,0,0,0,2.794,8.252Zm0-15.378c-11.568,0-20.98-8.608-20.98-19.189v-17.4c9.117-2.463,16.161-6.882,20.98-13.158,4.819,6.276,11.863,10.7,20.98,13.158v17.4C71.026,66.366,61.614,74.974,50.046,74.974ZM37.356,102.6a.249.249,0,0,1-.21.075.253.253,0,0,1-.191-.112L29.607,91.988a.263.263,0,0,1-.024-.256l2.9-6.558a.262.262,0,0,1,.358-.129l14.676,7.392Zm25.785-.042a.265.265,0,0,1-.2.116.241.241,0,0,1-.2-.076L52.577,92.436l14.675-7.39a.25.25,0,0,1,.2-.014.264.264,0,0,1,.155.148l.325.738a27.684,27.684,0,0,0-1.171,11.428ZM94.4,119.2A24.828,24.828,0,0,1,69.816,97.572c0-.051-.009-.1-.019-.152A24.792,24.792,0,1,1,94.4,119.2Z"/><path d="M109.931,82.512h-3.144a1.5,1.5,0,0,0-1.5,1.5v6.98A10.893,10.893,0,0,1,95.9,101.761V85.512h2.2a1.5,1.5,0,0,0,0-3H90.7a1.5,1.5,0,0,0,0,3h2.2v16.249a10.893,10.893,0,0,1-9.386-10.769v-6.98a1.5,1.5,0,0,0-1.5-1.5H78.873a1.5,1.5,0,1,0,0,3h1.643v5.48a13.9,13.9,0,0,0,12.386,13.8v4.272H89.761a1.5,1.5,0,0,0,0,3h9.281a1.5,1.5,0,0,0,0-3H95.9v-4.272a13.9,13.9,0,0,0,12.385-13.8v-5.48h1.644a1.5,1.5,0,0,0,0-3Z"/></g></svg>
