<svg id="Capa_1" enable-background="new 0 0 512 512" height="512" viewBox="0 0 512 512" width="512" xmlns="http://www.w3.org/2000/svg"><g><g><path d="m225.206 24.26 4.125 12.123c3.48 10.228 5.255 20.959 5.255 31.763v50.731c0 16.84-5.381 33.239-15.359 46.805l-80.13 108.951c-18.509 25.167-28.492 55.59-28.492 86.83 0 16.032 3.508 31.776 10.173 46.165 4.622 9.978 19.586 6.673 19.586-4.324v-24.068c0-33.921 11.767-66.792 33.295-93.007l80.796-98.389c.8-.974 2.291-.974 3.091 0l80.796 98.389c21.527 26.215 33.295 59.086 33.295 93.007v24.068c0 10.997 14.964 14.302 19.586 4.324 6.665-14.389 10.173-30.133 10.173-46.165 0-31.24-9.983-61.663-28.492-86.83l-80.13-108.951c-9.977-13.566-15.358-29.965-15.358-46.805v-50.731c0-10.804 1.775-21.535 5.255-31.763l4.125-12.123c.662-1.946-.785-3.966-2.84-3.966h-55.908c-2.057 0-3.504 2.021-2.842 3.966z" fill="#f25555"/><path d="m501.89 445.774c-2.13 3.78-5.47 6.87-9.63 8.66l-41.61 17.94c-31.14 13.43-66.63 12.32-96.87-3.02-15.52-7.88-28.82-19.07-39.11-32.56-10.3-13.49-17.59-29.28-21.08-46.32v-.01c-3.41-16.59-5.61-33.38-6.61-50.23l44.264 25.127c11.03 9.61 23.6 17.07 37.08 22.12s27.85 7.7 42.48 7.7c29.43 0 58.34 16.98 80.44 36.41z" fill="#f25555"/><path d="m499.338 423.498v12.38l-8.094-4.286c-3.694-3.248-8.719-1.37-12.741-4.122-20.04-13.71-43.842-21.146-68.353-21.146-14.63 0-29-2.65-42.48-7.7s-26.05-12.51-37.08-22.12l-43.61-36.27c-1.28-21.22-.64-42.54 1.92-63.71l1.872-15.53 6.966-6.155-5.041-9.815 4.11-34.09 6.202-7.671-4.394-7.329 13.015-107.96c1.05-8.691 6.682-15.817 14.3-19.09 0 0 6.357.308 9.691.308 18.83 0 33.259 9.428 46.729 22.588 18.97 18.53 30.013 38.961 41.223 62.541s17.939 46.856 20.329 73.266c.664 7.554 3.358 16.961 8.34 25.22 29.021 52.5 47.096 110.701 47.096 170.691z" fill="#ff7e7b"/><path d="m504.5 423.444v12.38c0 3.56-.93 6.97-2.61 9.95l-11.8-9.3c-3.69-3.25-7.57-6.25-11.59-9v-4.03c0-59.99-15.23-118.99-44.25-171.49-4.041-6.978-7.387-15.106-8.34-25.22-2.39-26.41-9.45-51.96-20.66-75.54s-26.55-45.19-45.52-63.72c-9.44-9.23-21.15-15.61-33.8-18.59 2.9-1.25 6.08-1.94 9.42-1.94 18.83 0 36.91 7.37 50.38 20.53 18.97 18.53 34.31 40.14 45.52 63.72s18.27 49.13 20.66 75.54c.664 7.554 3.358 16.961 8.34 25.22 29.02 52.5 44.25 111.5 44.25 171.49z" fill="#ff6464"/><path d="m10.108 445.774c2.13 3.78 5.47 6.87 9.63 8.66l41.61 17.94c31.14 13.43 66.63 12.32 96.87-3.02 15.52-7.88 28.82-19.07 39.11-32.56 10.3-13.49 17.59-29.28 21.08-46.32v-.01c3.41-16.59 5.61-33.38 6.61-50.23l-49.256 26.704c-11.03 9.61-23.6 17.07-37.08 22.12s-27.85 7.7-42.48 7.7c-29.43 0-53.822 13.521-75.922 32.951z" fill="#f25555"/><path d="m7.498 423.444v12.38c0 3.56.93 6.97 2.61 9.95l11.8-9.3c22.1-19.43 50.51-30.15 79.94-30.15 14.63 0 29-2.65 42.48-7.7s26.05-12.51 37.08-22.12l43.61-36.27c1.28-21.22-3.025-40.696-5.585-61.866l-21.835-186.54c-1.45-12-9.557-22.023-21.647-22.023-5.18 0-9.141-.753-14.591-1.22-13.14 2.853-25.327 9.35-35.092 18.89-18.97 18.53-34.31 40.14-45.52 63.72s-18.27 49.13-20.66 75.54c-.664 7.554-3.358 16.961-8.34 25.22-29.02 52.499-44.25 111.499-44.25 171.489z" fill="#ff7e7b"/><path d="m225.02 340.234-22.88 19.03c.64-23.49-.75-63.81-3.04-82.74l-22.73-188.55c-1.08-8.96-7.03-16.26-15.01-19.39 4.99-1.08 10.11-1.64 15.29-1.64 12.09 0 22.27 9.03 23.72 21.03l13.015 107.959-1.999 7.376 3.807 7.624 4.11 34.09-4.113 9.815 6.038 6.155 1.872 15.53c2.56 21.171 3.2 42.491 1.92 63.711z" fill="#ff6464"/><g><path d="m161.831 397.493c0 10.48 1.708 20.562 4.868 29.978 16.152 32.985 47.22 59.148 88.747 59.148 52.008 0 89.855-37.119 89.855-89.126 0-41.527-26.289-69.987-59.322-89.302-9.416-3.16-19.499-4.866-29.98-4.866-52.008 0-94.168 42.161-94.168 94.168z" fill="#8db9ff"/><path d="m350.169 397.492c0 52.01-42.16 94.17-94.17 94.17-41.53 0-76.78-26.88-89.3-64.19 9.42 3.17 19.51 4.88 29.99 4.88 52.01 0 94.17-42.16 94.17-94.17 0-10.48-1.71-20.57-4.88-29.99 37.31 12.519 64.19 47.769 64.19 89.3z" fill="#70abf2"/><path d="m207.309 380.274h29.47c1.105 0 2-.895 2-2v-29.47c0-1.105.895-2 2-2h30.439c1.105 0 2 .895 2 2v29.47c0 1.105.895 2 2 2h5.73l22 1.499c1.105 0 2 .895 2 2l.635 27.553c0 1.105-.895 2-2 2l-29.85-.099c-1.105 0-2 .895-2 2l1 28.271c0 1.105-.895 2-2 2l-28.209 1.217c-1.105 0-2-.895-2-2l-1.746-22.273v-5.728c0-1.105-.895-2-2-2h-29.47c-1.105 0-2-.895-2-2v-30.439c.001-1.106.896-2.001 2.001-2.001z" fill="#f5f8f9"/><path d="m306.689 382.271v30.44c0 1.11-.9 2-2 2h-29.47c-1.1 0-2 .9-2 2v29.47c0 1.11-.9 2-2 2h-30.44c-1.1 0-2-.89-2-2v-23.74c18.21-9.11 33.06-23.96 42.17-42.17h23.74c1.1 0 2 .9 2 2z" fill="#e8edf2"/></g></g><g><path d="m490.136 299.576c-1.418-3.891-5.722-5.898-9.615-4.478-3.892 1.418-5.896 5.723-4.478 9.615 13.906 38.152 20.957 78.099 20.957 118.731v9.126c-23.733-21.655-54.703-33.776-86.848-33.744-18.491 0-36.806-4.571-53.136-13.216-4.372-37.4-29.111-68.663-62.799-82.372.486-12.508 2.113-26.13 3.664-38.554 13.806 7.023 25.192 17.758 33.017 31.186 10.355 17.769 25.153 32.748 42.796 43.316l8.614 5.16c1.207.723 2.535 1.067 3.847 1.067 2.55 0 5.036-1.301 6.441-3.647 2.128-3.553.973-8.16-2.58-10.288l-8.614-5.16c-11.961-7.165-22.423-16.648-30.756-27.779 7.756-.541 15.335-2.813 22.11-6.666 6.052-3.474 13.018-5.057 19.975-4.839 4.142 0 7.5-3.358 7.5-7.5s-3.358-7.5-7.5-7.5c-9.553-.238-19.081 2.05-27.39 6.799-5.566 3.165-11.894 4.838-18.299 4.838h-6.092c-10.072-15.299-24.363-27.243-41.173-34.73l4.581-38.003c14.782-.606 29.666 3.707 41.402 12.814 1.362 1.046 2.968 1.552 4.562 1.552 2.251 0 4.477-1.009 5.954-2.933 2.523-3.285 1.905-7.994-1.38-10.516-4.628-3.554-9.655-6.541-14.94-8.946 6.642-4.21 14.085-7.045 21.929-8.295 4.091-.652 6.878-4.497 6.227-8.587-.652-4.091-4.502-6.877-8.587-6.227-13.785 2.196-26.598 8.265-37.033 17.537-5.354-1.05-10.852-1.483-16.324-1.401l12.907-107.064c.994-8.227 7.991-14.43 16.274-14.43 8.398 0 16.597 1.606 24.368 4.775 7.786 3.175 14.773 7.756 20.771 13.621 18.229 17.805 33.028 38.522 43.987 61.575 10.948 23.029 17.665 47.588 19.964 72.992.408 4.531 1.287 9.007 2.608 13.285 1.32 4.311 3.099 8.503 5.295 12.476 3.652 6.512 7.176 13.242 10.377 19.908 1.795 3.733 6.277 5.305 10.009 3.508 3.733-1.795 5.304-6.276 3.508-10.009-3.321-6.917-6.98-13.909-10.775-20.677-1.686-3.05-3.056-6.28-4.078-9.616-1.018-3.293-1.692-6.731-2.006-10.222-2.46-27.179-9.645-53.45-21.356-78.084-11.722-24.658-27.553-46.818-47.05-65.862-7.39-7.225-16-12.872-25.592-16.782-9.578-3.905-19.682-5.885-30.031-5.885-15.864 0-29.262 11.878-31.167 27.633l-8.401 69.692c-7.123-11.362-10.868-24.353-10.868-37.892v-50.732c0-10.003 1.634-19.877 4.855-29.347l5.474-16.089c1.334-3.921-.763-8.182-4.684-9.516-3.924-1.334-8.182.763-9.516 4.684l-5.474 16.089c-3.752 11.029-5.655 22.528-5.655 34.179v50.731c0 18.569 5.815 36.291 16.816 51.249l6.393 8.693-4.26 35.341-27.068-32.961c-1.424-1.735-3.551-2.74-5.796-2.74s-4.372 1.005-5.796 2.74l-27.068 32.961-4.26-35.34 6.394-8.694c11.001-14.958 16.816-32.68 16.816-51.249v-50.731c0-11.65-1.903-23.149-5.655-34.179l-5.474-16.089c-1.333-3.92-5.591-6.018-9.516-4.684-3.921 1.334-6.019 5.595-4.684 9.516l5.474 16.088c3.222 9.47 4.855 19.344 4.855 29.348v50.731c0 13.539-3.745 26.53-10.868 37.892l-8.402-69.695c-1.904-15.752-15.302-27.63-31.166-27.63-10.349 0-20.453 1.98-30.031 5.885-9.592 3.911-18.202 9.557-25.587 16.777-6.344 6.191-12.428 12.873-18.082 19.859-2.606 3.22-2.108 7.942 1.112 10.548 3.22 2.605 7.943 2.108 10.548-1.112 5.287-6.533 10.972-12.777 16.903-18.565 5.995-5.862 12.983-10.443 20.769-13.618 7.771-3.168 15.97-4.775 24.368-4.775 8.284 0 15.28 6.204 16.274 14.428l12.907 107.067c-5.473-.081-10.97.351-16.325 1.401-10.434-9.272-23.248-15.341-37.033-17.537-4.09-.649-7.935 2.135-8.587 6.227-.652 4.09 2.136 7.935 6.227 8.587 7.844 1.25 15.287 4.084 21.929 8.295-5.286 2.405-10.313 5.392-14.94 8.946-3.285 2.522-3.903 7.231-1.38 10.516 1.477 1.923 3.703 2.933 5.954 2.933 1.594 0 3.201-.506 4.562-1.552 11.736-9.108 26.62-13.42 41.402-12.814l4.581 38.003c-16.81 7.487-31.1 19.431-41.173 34.73h-6.092c-6.405 0-12.732-1.673-18.299-4.839-8.308-4.749-17.836-7.036-27.389-6.799-4.142 0-7.5 3.358-7.5 7.5s3.358 7.5 7.5 7.5c6.957-.218 13.923 1.365 19.975 4.838 6.776 3.853 14.355 6.126 22.111 6.667-8.333 11.131-18.795 20.614-30.756 27.779l-8.614 5.16c-3.553 2.128-4.708 6.735-2.58 10.288 1.406 2.347 3.892 3.647 6.441 3.647 1.312 0 2.64-.344 3.847-1.067l8.614-5.16c17.643-10.569 32.441-25.547 42.796-43.316 7.825-13.428 19.211-24.164 33.017-31.187 1.554 12.445 3.175 26.025 3.664 38.554-33.689 13.71-58.428 44.974-62.799 82.375-7.754 4.106-15.983 7.321-24.506 9.544-9.327 2.433-18.958 3.667-28.627 3.667-5.341 0-10.735.34-16.031 1.009-4.109.52-7.02 4.272-6.5 8.382.502 4.126 4.352 7.035 8.382 6.5 4.674-.591 9.435-.891 14.149-.891 10.945 0 21.851-1.397 32.413-4.152 6.912-1.803 13.651-4.187 20.15-7.098.912 18.448 6.764 35.616 16.255 50.212-4.979 3.742-10.286 7.057-15.84 9.88-28.342 14.375-61.331 15.405-90.508 2.821 0 0-42.482-18.354-42.896-18.591 10.248-9.505 21.747-17.908 34.614-23.406 3.792-1.667 5.515-6.092 3.849-9.884-1.667-3.792-6.093-5.514-9.884-3.849-12.83 5.615-24.604 13.375-35.001 22.809v-9.122c0-58.553 14.978-116.599 43.306-167.848 5.088-8.618 8.394-18.188 9.253-28.187 2.299-25.408 9.016-49.967 19.963-72.995 2.421-5.091 5.089-10.18 7.93-15.125 2.063-3.592.825-8.176-2.767-10.239-3.59-2.062-8.175-.824-10.239 2.767-3.034 5.28-5.883 10.715-8.471 16.156-11.71 24.635-18.895 50.907-21.355 78.089-.659 7.911-3.391 15.481-7.434 22.264-29.561 53.478-45.186 114.034-45.186 175.118v12.38c0 11.101 6.584 21.11 16.771 25.498l41.609 17.939c15.452 6.664 31.841 9.981 48.202 9.981 18.877 0 37.717-4.416 55.037-13.202 6.359-3.232 12.431-7.028 18.126-11.314 18.652 21.13 45.922 34.482 76.255 34.482 30.334 0 57.604-13.352 76.256-34.482 5.698 4.285 11.772 8.087 18.13 11.317 3.461 1.757 7.078 3.377 10.749 4.815.899.352 1.824.519 2.734.519 2.996 0 5.826-1.808 6.985-4.766 1.511-3.857-.391-8.208-4.248-9.719-3.225-1.263-6.397-2.685-9.429-4.223-5.554-2.822-10.863-6.141-15.844-9.882 9.491-14.597 15.344-31.767 16.255-50.216 16.489 7.381 34.452 11.257 52.565 11.257 30.158-.176 58.784 12.276 80.423 33.07-2.371 1.325-40.755 17.557-42.896 18.591-15.382 6.634-32.342 9.573-49.049 8.502-4.14-.277-7.7 2.871-7.965 7.004-.265 4.134 2.871 7.7 7.004 7.965 2.561.165 5.125.246 7.69.246 16.532 0 33.071-3.393 48.259-9.943l41.607-17.939c10.19-4.39 16.774-14.399 16.774-25.5v-12.38c0-42.39-7.356-84.065-21.864-123.868zm-259.59-23.949-4.925-40.858 30.379-36.993 30.379 36.993c-1.773 15.715-6.268 48.334-6.954 63.737-7.524-1.78-15.366-2.727-23.426-2.727s-15.902.947-23.426 2.727c-.439-7.669-1.116-15.335-2.027-22.879zm25.454 208.581c-47.814 0-86.714-38.9-86.714-86.714s38.9-86.714 86.714-86.714 86.714 38.9 86.714 86.714-38.9 86.714-86.714 86.714z"/><path d="m306.715 372.765h-25.987v-25.987c0-4.142-3.358-7.5-7.5-7.5h-34.456c-4.142 0-7.5 3.358-7.5 7.5v25.987h-25.987c-4.142 0-7.5 3.358-7.5 7.5v34.456c0 4.142 3.358 7.5 7.5 7.5h25.987v25.987c0 4.142 3.358 7.5 7.5 7.5h34.456c4.142 0 7.5-3.358 7.5-7.5v-25.987h25.987c4.142 0 7.5-3.358 7.5-7.5v-34.456c0-4.142-3.358-7.5-7.5-7.5zm-7.5 34.456h-25.987c-4.142 0-7.5 3.358-7.5 7.5v25.987h-19.456v-25.987c0-4.142-3.358-7.5-7.5-7.5h-25.987v-19.456h25.987c4.142 0 7.5-3.358 7.5-7.5v-25.987h19.456v25.987c0 4.142 3.358 7.5 7.5 7.5h25.987z"/></g></g></svg>